<?xml version="1.0" encoding="UTF-8" standalone="no"?>
<!-- Created with Inkscape (http://www.inkscape.org/) -->

<svg
   width="379.22183"
   height="459.4863"
   viewBox="0 0 100.33577 121.57242"
   version="1.1"
   id="svg1"
   xml:space="preserve"
   xmlns="http://www.w3.org/2000/svg"
   xmlns:svg="http://www.w3.org/2000/svg"><defs
     id="defs1" /><g
     id="layer1"
     transform="translate(-17.565425,-6.9471253)"><path
       style="display:inline;fill:#1a1a1a;fill-opacity:1;stroke-width:1"
       d="m 74.920929,128.41787 c -0.119793,-0.0433 -0.446499,-0.29273 -0.726021,-0.55427 -0.279515,-0.26153 -1.711224,-1.43713 -3.181574,-2.61243 -1.47035,-1.17529 -2.875197,-2.25998 -3.121884,-2.41041 -0.246686,-0.15042 -0.646488,-0.27374 -0.88845,-0.27404 l -0.43993,-5.5e-4 -1.665525,1.39777 c -0.916039,0.76877 -2.434179,2.01207 -3.373645,2.76288 -0.93946,0.75082 -1.870387,1.43906 -2.068724,1.52943 l -0.360607,0.1643 -0.573454,-0.17181 -0.573454,-0.17181 -0.298197,-0.37909 -0.298197,-0.3791 v -0.37702 -0.37702 l 0.950486,-0.90932 c 0.522767,-0.50014 2.237986,-1.94074 3.811599,-3.20133 1.573613,-1.2606 3.12248,-2.41582 3.441931,-2.56715 0.319447,-0.15133 0.84218,-0.32562 1.161627,-0.38731 l 0.580819,-0.11215 0.813752,0.22312 0.813761,0.22313 1.146496,0.86227 c 0.630574,0.47425 2.266507,1.79148 3.635417,2.92718 1.368909,1.13571 2.594066,2.23835 2.722573,2.45032 l 0.233647,0.38542 v 0.58357 0.58358 l -0.375919,0.44674 -0.375918,0.44677 -0.3864,-0.0115 c -0.212524,-0.006 -0.484416,-0.0468 -0.604209,-0.0902 z m 9.648265,-2.728 c -0.395027,-0.19866 -1.469658,-0.9258 -2.388073,-1.61586 -0.918414,-0.69005 -2.584631,-1.98404 -3.702699,-2.87551 -1.118069,-0.89148 -3.173897,-2.53298 -4.568513,-3.64778 -1.394609,-1.11481 -2.952915,-2.36347 -3.462894,-2.77479 -0.509986,-0.41132 -1.341925,-0.95834 -1.848755,-1.21559 l -0.921512,-0.46774 -0.493834,0.0927 c -0.271607,0.051 -0.894256,0.3366 -1.383667,0.63478 -0.489404,0.29817 -1.52861,1.0772 -2.30934,1.73118 -0.780738,0.65398 -2.269922,1.86412 -3.309303,2.68923 -1.039381,0.82509 -3.115131,2.38095 -4.612773,3.45747 -1.497648,1.07651 -3.297778,2.35613 -4.000304,2.8436 l -1.277309,0.8863 -0.553522,0.10384 -0.553521,0.10384 -0.3896,-0.16137 c -0.21428,-0.0888 -0.50464,-0.35613 -0.645249,-0.59416 l -0.255642,-0.43277 0.16823,-0.50973 0.168229,-0.50975 2.491906,-1.76662 c 1.37055,-0.97165 3.386053,-2.43815 4.478893,-3.25889 1.09284,-0.82075 3.161988,-2.43846 4.598103,-3.59492 1.436121,-1.15644 3.171767,-2.50365 3.857001,-2.99378 0.685228,-0.49015 1.573492,-1.01565 1.973919,-1.16781 l 0.728052,-0.27663 h 0.854369 0.854369 l 0.925014,0.2857 0.925005,0.28571 1.304645,0.88727 c 0.717558,0.48801 1.598687,1.1327 1.958064,1.43263 0.359378,0.29995 2.484453,2.01006 4.722385,3.80025 2.237937,1.7902 4.912957,3.87565 5.94449,4.63433 1.031538,0.7587 2.157214,1.64855 2.501504,1.97745 l 0.625985,0.59801 v 0.59992 0.59992 l -0.290409,0.29041 -0.290409,0.29041 h -0.552303 -0.552304 z m 8.491952,-3.90005 c -0.365019,-0.10007 -0.98577,-0.36892 -1.379437,-0.59744 -0.393665,-0.22851 -1.467188,-0.90341 -2.385602,-1.49976 -0.918414,-0.59637 -2.486616,-1.67559 -3.484892,-2.39827 -0.998275,-0.72268 -3.02387,-2.2929 -4.501316,-3.48937 -1.477452,-1.19647 -3.176334,-2.60976 -3.775301,-3.14065 -0.598968,-0.53089 -1.903585,-1.64656 -2.89915,-2.47925 -0.99557,-0.8327 -2.216457,-1.78646 -2.713085,-2.11948 -0.496626,-0.33303 -1.264505,-0.74077 -1.706395,-0.90611 l -0.803429,-0.3006 -1.130013,-0.0901 -1.130004,-0.0902 -1.034733,0.21999 c -0.569108,0.121 -1.356358,0.38298 -1.749448,0.58216 -0.393091,0.1992 -1.266965,0.77023 -1.941941,1.26897 -0.674977,0.49874 -1.978661,1.5362 -2.897076,2.30548 -0.918414,0.76929 -2.617302,2.15012 -3.775301,3.06852 -1.157999,0.91839 -2.82785,2.19926 -3.710779,2.84635 -0.882934,0.64711 -2.451135,1.72661 -3.484891,2.3989 -1.033762,0.67231 -2.348049,1.49578 -2.920641,1.82994 -0.572593,0.33417 -1.64657,0.90893 -2.386619,1.27724 l -1.345547,0.66965 -0.635401,-0.0717 -0.635398,-0.0717 -0.353972,-0.33253 -0.353966,-0.33254 v -0.4506 c 0,-0.24783 0.09613,-0.58784 0.21361,-0.75557 0.117488,-0.16773 0.78843,-0.5992 1.490991,-0.95882 0.702553,-0.35961 1.896927,-1.02915 2.654159,-1.48785 0.757236,-0.4587 2.422257,-1.54246 3.700055,-2.40835 1.277792,-0.8659 3.434066,-2.42883 4.79172,-3.47319 1.357659,-1.04436 3.699034,-2.91683 5.203063,-4.16104 1.504031,-1.24421 3.072232,-2.4898 3.484892,-2.76798 0.412661,-0.27818 1.142348,-0.70563 1.621517,-0.94988 0.479176,-0.24426 1.328617,-0.59264 1.887649,-0.77417 l 1.01643,-0.33006 1.887648,0.0494 1.88765,0.0494 0.580819,0.17464 c 0.319446,0.0961 1.070877,0.41247 1.669839,0.70315 0.598968,0.29069 1.709775,0.99251 2.468466,1.55959 0.758692,0.56709 1.869499,1.4742 2.468467,2.01583 0.598962,0.54163 2.330521,2.00755 3.847902,3.25759 1.517377,1.25003 3.475617,2.82624 4.351642,3.50268 0.87602,0.67642 2.272084,1.72668 3.10236,2.3339 0.830272,0.60722 2.577766,1.77 3.883322,2.58396 1.30555,0.81396 2.506822,1.64913 2.669488,1.85593 l 0.29576,0.37599 v 0.55789 0.55788 l -0.326708,0.21133 c -0.179688,0.11622 -0.490063,0.24536 -0.689717,0.28696 -0.199654,0.0416 -0.661663,-0.006 -1.026687,-0.10631 z m 5.863447,-5.3667 c -0.254748,-0.0953 -1.223937,-0.59803 -2.153756,-1.11714 -0.929819,-0.5191 -2.512706,-1.45383 -3.517523,-2.07717 -1.004823,-0.62333 -2.62476,-1.71865 -3.599861,-2.43402 -0.9751,-0.71537 -2.998571,-2.32897 -4.496602,-3.58577 -1.498025,-1.25681 -3.401797,-2.85099 -4.230598,-3.54264 -0.8288,-0.69165 -2.012659,-1.73024 -2.630791,-2.30798 -0.618132,-0.57774 -1.566445,-1.361551 -2.10736,-1.741805 -0.540917,-0.380248 -1.521043,-0.956632 -2.178058,-1.280848 -0.657015,-0.324221 -1.815316,-0.759339 -2.574007,-0.966928 l -1.379435,-0.377439 -2.178059,-0.07751 -2.178058,-0.07751 -0.653415,0.153006 -0.653419,0.153001 -0.04841,-0.138617 c -0.02661,-0.07624 -0.108301,-0.138617 -0.181506,-0.138617 -0.07321,0 -0.116768,0.07248 -0.09681,0.161063 l 0.03628,0.161063 -0.879823,0.246444 c -0.4839,0.135543 -1.347155,0.483862 -1.918336,0.774036 -0.571188,0.290179 -1.41473,0.805515 -1.874537,1.145196 -0.459808,0.339681 -1.197426,0.948425 -1.639151,1.352775 -0.441724,0.40434 -1.68525,1.48938 -2.763387,2.41118 -1.078143,0.92179 -2.646339,2.23037 -3.484892,2.90794 -0.838553,0.67756 -2.178057,1.69795 -2.976679,2.26753 -0.798622,0.56957 -2.332056,1.59596 -3.407636,2.28087 -1.075581,0.68491 -3.00316,1.76381 -4.283514,2.39755 -1.280355,0.63374 -2.970818,1.45109 -3.756592,1.81633 l -1.42868,0.6641 h -0.579041 -0.579046 l -0.442345,-0.44235 -0.44235,-0.44234 0.08618,-0.53103 0.08617,-0.53102 0.476245,-0.46425 0.476245,-0.46424 2.069125,-0.87649 c 1.138018,-0.48207 2.967586,-1.37699 4.065706,-1.98872 1.098119,-0.61173 2.748015,-1.60401 3.66643,-2.20506 0.918414,-0.60105 2.519285,-1.73166 3.557492,-2.51246 1.038207,-0.78079 2.968601,-2.32463 4.289764,-3.43074 1.321164,-1.10611 2.922035,-2.469965 3.557493,-3.030797 0.635457,-0.560826 1.5801,-1.32096 2.099205,-1.68919 0.519101,-0.368224 1.433887,-0.914891 2.03285,-1.214805 0.598968,-0.299921 1.485157,-0.694427 1.96931,-0.876679 0.484152,-0.182252 1.398379,-0.438383 2.031615,-0.569178 l 1.151336,-0.237819 1.832664,0.0072 c 1.007962,0.0038 2.348029,0.07875 2.977916,0.166199 0.629887,0.08746 1.742731,0.350256 2.472983,0.584012 0.730253,0.233751 1.797255,0.618616 2.371115,0.855259 0.57386,0.236637 1.47924,0.720044 2.011957,1.07423 0.532716,0.354186 1.491309,1.091078 2.130207,1.637531 0.638893,0.546459 1.488334,1.254001 1.887648,1.572317 0.399308,0.31832 1.51522,1.26554 2.479804,2.10494 0.964581,0.8394 2.630797,2.24856 3.702696,3.13146 1.071902,0.88292 2.504319,2.03455 3.183143,2.55918 0.678829,0.52464 2.18169,1.57265 3.33969,2.32891 1.157999,0.75626 3.216264,1.94436 4.573917,2.64022 l 2.468468,1.26519 0.39931,0.42954 0.39931,0.42954 v 0.51709 0.5171 l -0.42444,0.42443 -0.42445,0.42445 -0.62828,-0.008 c -0.345559,-0.004 -0.836714,-0.0862 -1.091463,-0.18151 z m 4.875637,-6.27182 -0.37927,-0.20612 -0.16394,-0.40518 c -0.0902,-0.22285 -0.17489,-0.53586 -0.18825,-0.69558 -0.0134,-0.15973 -0.0139,-0.39943 -0.001,-0.53268 l 0.023,-0.24226 0.52107,-0.32204 0.52106,-0.32203 -0.17185,-0.10622 -0.17186,-0.10621 0.38239,-0.096 0.38238,-0.096 0.48501,0.23015 c 0.26675,0.12658 0.62918,0.3836 0.80538,0.57117 l 0.32036,0.34101 0.13736,0.61133 c 0.0756,0.33623 0.098,0.73522 0.05,0.88663 -0.0481,0.15142 -0.27553,0.37259 -0.50549,0.49151 l -0.41811,0.21622 -0.62432,-0.006 -0.62433,-0.006 z m -74.6185,-1.19209 c -0.119798,-0.0441 -0.339653,-0.18591 -0.488582,-0.31524 -0.148923,-0.12935 -0.328183,-0.38531 -0.398353,-0.56882 l -0.127585,-0.33366 0.204719,-0.48997 c 0.112604,-0.26948 0.357204,-0.58944 0.543561,-0.71101 0.186362,-0.12157 1.205927,-0.52234 2.265701,-0.8906 1.059769,-0.36826 2.62797,-0.97964 3.484892,-1.35861 0.856915,-0.37897 2.21712,-1.05911 3.022673,-1.51142 0.805554,-0.45231 2.079718,-1.22488 2.831472,-1.71682 0.75176,-0.49195 2.216276,-1.532423 3.254483,-2.31216 1.038207,-0.779744 2.671748,-2.087528 3.630094,-2.906197 0.958344,-0.818665 2.747872,-2.377832 3.976721,-3.464817 1.22885,-1.086984 2.645961,-2.304495 3.149136,-2.705582 0.503174,-0.401086 1.425331,-1.029799 2.049237,-1.397145 0.623905,-0.367346 1.591766,-0.848234 2.150803,-1.068643 0.559037,-0.220405 1.735186,-0.581955 2.613669,-0.80344 0.878484,-0.22148 2.311015,-0.474237 3.183402,-0.561672 0.872386,-0.08744 2.263473,-0.158977 3.091302,-0.158977 0.827831,0 2.139654,0.07022 2.91516,0.156047 0.775512,0.08582 1.867408,0.249952 2.426445,0.364711 0.559032,0.114765 1.898536,0.480948 2.976674,0.813742 l 1.960254,0.60507 0.322493,0.2858 c 0.177373,0.157187 0.397157,0.512026 0.488411,0.788535 l 0.16592,0.50273 -0.284604,0.383436 c -0.156535,0.210894 -0.441659,0.467075 -0.633619,0.569294 l -0.34901,0.185852 -0.580814,-0.06623 c -0.319447,-0.03643 -1.56094,-0.33354 -2.75887,-0.660247 -1.197937,-0.326706 -2.919648,-0.723578 -3.826033,-0.88194 l -1.647969,-0.287924 -1.836925,2.25e-4 -1.836916,2.25e-4 -1.597243,0.302571 -1.597244,0.302576 -1.248942,0.481854 c -0.686918,0.265022 -1.517322,0.618774 -1.845341,0.78612 -0.328018,0.167341 -1.13834,0.713003 -1.800717,1.212578 -0.662377,0.499579 -2.347626,1.887181 -3.745007,3.083558 -1.397376,1.196383 -3.096088,2.667391 -3.774918,3.268911 -0.678828,0.601513 -1.974319,1.680612 -2.878871,2.397999 -0.904552,0.71738 -2.211386,1.70996 -2.904078,2.20573 -0.692687,0.49578 -1.880178,1.27745 -2.638869,1.73705 -0.758692,0.45961 -2.424903,1.36597 -3.702701,2.01417 -1.277792,0.64821 -2.747983,1.32679 -3.267083,1.50799 -0.519106,0.1812 -1.589774,0.55173 -2.379264,0.82341 -0.789495,0.27168 -1.638937,0.48881 -1.887654,0.4825 -0.248711,-0.006 -0.550217,-0.0476 -0.67001,-0.0915 z m 74.34435,-1.56683 c 0,-0.04 0.0327,-0.0726 0.0726,-0.0726 0.04,0 0.0726,0.0326 0.0726,0.0726 0,0.04 -0.0327,0.0726 -0.0726,0.0726 -0.04,0 -0.0726,-0.0326 -0.0726,-0.0726 z m -9.075237,-3.98656 c -0.798621,-0.14305 -1.87676,-0.40473 -2.395866,-0.58149 -0.5191,-0.17675 -1.376542,-0.54813 -1.905428,-0.82529 -0.528881,-0.27715 -1.100623,-0.63342 -1.270532,-0.79172 l -0.308931,-0.28781 6e-5,-0.46626 c 3.3e-5,-0.25643 -0.0203,-1.328754 -0.04517,-2.382925 l -0.04522,-1.91668 3.575482,1.823713 3.575482,1.823712 0.979512,0.101378 0.979508,0.101392 0.97162,-0.247409 0.971621,-0.247405 2.715059,-1.249353 c 1.49328,-0.687143 2.75111,-1.249352 2.79517,-1.249352 0.0441,0 0.0801,0.950425 0.0801,2.112058 v 2.112051 l -0.36205,0.36206 c -0.19913,0.19912 -0.78853,0.5534 -1.30978,0.78727 -0.52125,0.23387 -1.28945,0.52723 -1.70711,0.65191 -0.41765,0.12468 -1.34744,0.32258 -2.066195,0.43977 -0.71876,0.1172 -1.862238,0.20801 -2.541068,0.20179 -0.67883,-0.006 -1.887648,-0.12834 -2.686269,-0.27141 z m 8.136077,-1.37856 0.50354,-0.21039 v -0.22522 c 0,-0.12387 -0.049,-0.22485 -0.10889,-0.2244 -0.0599,4.4e-4 -0.37028,0.0779 -0.68972,0.17213 -0.31945,0.0942 -0.63993,0.17554 -0.71218,0.1807 -0.0722,0.005 -0.14815,0.12371 -0.16866,0.26347 l -0.0373,0.25411 h 0.35482 c 0.19516,0 0.58143,-0.0947 0.85838,-0.2104 z m -77.983695,-0.11972 -0.424427,-0.36508 v -0.61108 -0.61109 l 0.465279,-0.415727 0.465275,-0.415723 0.838256,-0.225723 c 0.461043,-0.124143 1.757665,-0.521382 2.881386,-0.882753 l 2.043133,-0.65703 1.732167,-0.840276 c 0.952692,-0.462152 2.287571,-1.187827 2.9664,-1.612611 0.67883,-0.424783 1.854978,-1.230803 2.613669,-1.791163 0.758691,-0.560359 1.738818,-1.321246 2.178057,-1.690869 0.439244,-0.369618 1.419367,-1.185917 2.178058,-1.813988 0.75869,-0.628076 2.098195,-1.838233 2.976679,-2.689238 0.878483,-0.851011 2.250658,-2.138187 3.04928,-2.860394 0.798622,-0.722206 1.661152,-1.420326 1.91674,-1.551375 0.255582,-0.131054 0.532836,-0.238273 0.616118,-0.238273 0.08328,0 0.408917,0.111555 0.723639,0.247899 l 0.572213,0.247905 0.13511,0.296611 c 0.07431,0.163137 0.111659,0.510726 0.08299,0.772416 -0.02864,0.261697 -0.153604,0.630695 -0.277644,0.820004 -0.124041,0.189309 -0.859495,0.88969 -1.634343,1.556402 -0.774843,0.666712 -2.436779,2.170862 -3.693184,3.342555 -1.256404,1.171691 -2.859713,2.618481 -3.562909,3.215083 -0.703191,0.596603 -2.256223,1.784863 -3.451179,2.640583 -1.19495,0.855718 -2.783204,1.91597 -3.529449,2.356126 -0.746244,0.44015 -2.113534,1.157215 -3.038424,1.593473 -0.924896,0.436256 -2.764645,1.156196 -4.088338,1.599856 l -2.406715,0.80666 -0.951711,0.0709 -0.951705,0.0709 z m 84.132525,-0.72941 -0.49055,-0.32967 -0.13541,-0.54332 -0.13541,-0.543304 0.19058,-0.758641 c 0.10482,-0.417255 0.23056,-0.823982 0.27944,-0.903844 0.0488,-0.07986 0.17008,-0.373899 0.26935,-0.65342 l 0.1805,-0.508213 0.002,-2.069152 0.002,-2.069154 h -0.17006 c -0.0935,0 -1.41669,0.581884 -2.94037,1.293076 -1.52368,0.711192 -3.90808,1.822001 -5.29867,2.468462 l -2.528336,1.17539 H 96.975627 95.989973 L 91.880765,95.724158 C 89.620701,94.617461 86.742427,93.210383 85.4846,92.597316 L 83.197639,91.48265 v -0.267667 c 0,-0.147211 0.08168,-0.329418 0.181505,-0.404895 0.09982,-0.07547 1.324984,-0.601295 2.722573,-1.168487 1.397585,-0.567187 3.945913,-1.598067 5.662949,-2.290841 1.71703,-0.692775 3.658994,-1.450281 4.31547,-1.68334 l 1.19359,-0.423747 2.872114,1.358405 c 1.57967,0.747117 4.40018,2.070948 6.26782,2.941837 l 3.3957,1.583435 0.2094,0.31959 0.2094,0.319588 -0.0164,2.835605 -0.0164,2.835604 0.31097,0.609538 0.31096,0.609537 -0.0139,0.925709 c -0.008,0.509139 -0.0815,1.051969 -0.16404,1.206279 -0.0826,0.15431 -0.26301,0.33837 -0.40094,0.40902 -0.13793,0.0706 -0.42208,0.16929 -0.63145,0.21922 l -0.38068,0.0908 z M 21.931252,94.573908 21.485927,94.128583 v -0.460676 c 0,-0.253376 0.110463,-0.647679 0.245479,-0.876239 0.13501,-0.228559 0.412715,-0.479761 0.617116,-0.558235 0.204401,-0.07847 0.959712,-0.214872 1.678472,-0.303115 0.718755,-0.08824 1.827702,-0.299238 2.464318,-0.468879 l 1.157489,-0.308438 3.23551,-1.645258 3.23551,-1.645258 h 0.482321 0.48232 l 0.33552,0.357144 0.335516,0.357143 v 0.594369 0.594369 l -0.376676,0.391619 -0.376681,0.391625 -3.382117,1.716257 -3.382123,1.716257 -1.742446,0.433005 -1.742446,0.433004 -1.188216,0.08598 -1.188221,0.08598 z m 91.759098,-6.847542 c -0.51911,-0.138853 -1.62992,-0.497139 -2.46847,-0.796186 -0.83855,-0.299048 -2.11272,-0.840463 -2.83147,-1.203138 -0.71876,-0.362681 -1.96026,-1.104574 -2.75888,-1.648651 -0.79862,-0.544076 -2.17079,-1.561868 -3.04928,-2.26176 -0.87848,-0.699893 -2.35614,-2.027202 -3.28367,-2.949579 l -1.686435,-1.677051 -0.65651,-1.016424 c -0.361084,-0.559037 -1.117849,-1.931212 -1.68171,-3.049281 l -1.0252,-2.032855 -0.71662,-2.110549 -0.71662,-2.11056 -0.227725,-1.737342 c -0.125247,-0.955541 -0.265242,-2.848156 -0.311099,-4.205809 -0.04588,-1.357658 -0.15102,-3.187226 -0.233702,-4.06571 -0.08268,-0.878482 -0.27681,-2.283329 -0.431414,-3.121881 -0.154597,-0.838552 -0.404664,-1.949361 -0.555695,-2.468465 -0.151035,-0.519104 -0.416765,-1.303204 -0.59051,-1.742446 -0.173745,-0.439241 -0.675405,-1.436504 -1.114798,-2.216139 l -0.798896,-1.417517 0.09161,-0.288628 c 0.05039,-0.158744 0.14462,-0.288626 0.209412,-0.288626 0.06479,0 0.195488,-0.187549 0.290437,-0.416776 l 0.172637,-0.416775 0.360025,-0.164039 c 0.198012,-0.09022 0.54075,-0.164041 0.761638,-0.164041 h 0.401613 l 0.37501,0.399311 c 0.206251,0.219621 0.602272,0.856702 0.880037,1.415737 0.277771,0.559035 0.73838,1.669843 1.023587,2.468465 0.285202,0.798621 0.679801,2.011374 0.876875,2.695009 0.197081,0.683633 0.464353,1.963358 0.593941,2.843833 l 0.235612,1.600862 0.133205,3.545133 0.133205,3.545139 0.23143,1.524637 c 0.127289,0.838553 0.396795,2.140036 0.598897,2.892186 0.202107,0.752144 0.564201,1.862952 0.804647,2.468456 0.240452,0.605509 0.797085,1.804674 1.236967,2.664817 0.43988,0.860137 1.077391,1.938274 1.416688,2.39586 0.33929,0.457585 1.057081,1.304814 1.595081,1.882736 0.53801,0.577921 1.806,1.745129 2.81776,2.593797 1.01177,0.848672 2.49568,1.985344 3.2976,2.525942 0.80191,0.540597 1.94539,1.228553 2.54107,1.528798 0.59567,0.300243 1.74029,0.792969 2.54359,1.094947 0.8033,0.301972 1.88143,0.65736 2.39585,0.789748 l 0.93531,0.240704 0.32448,0.301913 0.32448,0.301906 0.0886,0.472365 c 0.0487,0.259803 0.0448,0.610476 -0.009,0.779271 -0.0535,0.168795 -0.23947,0.395209 -0.41311,0.503141 -0.17363,0.107934 -0.51172,0.230382 -0.7513,0.272108 l -0.43561,0.07587 z M 19.795623,84.388816 C 19.544788,84.235865 19.283421,84.023747 19.21481,83.91745 l -0.124748,-0.193277 -0.0726,-4.03118 -0.0726,-4.031185 0.217808,0.09065 c 0.119793,0.04983 0.86157,0.278847 1.648397,0.508871 l 1.4306,0.418225 1.98169,0.280356 c 1.089932,0.154197 2.549712,0.323612 3.243952,0.376478 l 1.262249,0.09612 0.04456,0.459566 0.04456,0.459566 1.794631,0.04088 1.794632,0.04088 0.201921,-0.167577 c 0.111055,-0.09217 0.20192,-0.313557 0.20192,-0.491979 v -0.324392 l 1.343132,-0.100298 c 0.738726,-0.05516 2.061898,-0.198495 2.940382,-0.318507 0.878483,-0.120012 2.217988,-0.376599 2.976673,-0.570184 0.758691,-0.19359 1.689811,-0.448557 2.069159,-0.566604 l 0.689718,-0.214625 v 3.848164 3.848166 l -0.21141,0.408819 -0.211409,0.408824 -0.500255,0.237384 -0.500256,0.237384 -10.577932,-5.42e-4 -10.577934,-5.44e-4 z m 63.501455,-1.647234 c -0.443845,-0.660225 -1.101177,-1.754695 -1.46073,-2.432169 -0.359553,-0.677468 -1.026451,-2.146545 -1.48199,-3.264614 -0.455539,-1.118068 -1.052394,-2.68627 -1.32635,-3.484891 -0.273951,-0.798622 -0.690294,-2.252766 -0.925197,-3.231439 -0.234904,-0.978667 -0.556436,-2.644873 -0.714513,-3.702689 l -0.287408,-1.923304 -0.0028,-2.686269 -0.0028,-2.68627 -0.274583,-1.33051 -0.274582,-1.33051 -0.613741,-1.179697 c -0.337522,-0.648833 -0.907803,-1.506801 -1.267252,-1.906595 -0.359449,-0.399795 -1.053316,-1.010285 -1.54193,-1.356646 -0.48861,-0.34636 -1.227555,-0.800044 -1.642093,-1.008187 -0.414537,-0.208143 -1.263977,-0.520596 -1.887647,-0.694343 l -1.133945,-0.315902 -1.16163,2.79e-4 -1.161631,2.79e-4 -1.161633,0.253221 c -0.638893,0.13927 -1.61902,0.451653 -2.178057,0.694183 -0.559032,0.242531 -1.444732,0.723685 -1.968223,1.069231 -0.523491,0.345546 -1.28603,0.981666 -1.694536,1.413601 -0.408506,0.431935 -0.965611,1.137814 -1.238004,1.568622 -0.272397,0.430807 -1.007155,1.763412 -1.632794,2.961342 -0.625645,1.19793 -1.464001,2.66812 -1.863013,3.267089 -0.399012,0.598961 -1.15143,1.64443 -1.672034,2.323259 -0.520605,0.678829 -1.439392,1.807704 -2.041746,2.508617 l -1.095189,1.274378 -0.540998,0.162088 -0.540998,0.162089 -0.460993,-0.19095 -0.460988,-0.19095 -0.211185,-0.50543 -0.211178,-0.50543 0.252805,-0.667485 0.252805,-0.667492 0.96531,-1.016425 c 0.530917,-0.559037 1.263803,-1.375808 1.62863,-1.815047 0.364827,-0.439244 1.017325,-1.321356 1.449994,-1.960254 0.432676,-0.638893 1.38611,-2.311712 2.118743,-3.717368 0.73264,-1.405655 1.618065,-2.941186 1.967614,-3.412289 0.349554,-0.471103 0.988507,-1.209509 1.419905,-1.640903 0.431391,-0.431393 1.1764,-1.075579 1.65557,-1.431524 0.479174,-0.355944 1.295946,-0.86125 1.815052,-1.122901 0.5191,-0.261651 1.524358,-0.680534 2.233897,-0.930852 l 1.290075,-0.455123 1.420338,-0.161509 1.420331,-0.161508 1.516956,0.159999 1.51695,0.16 1.245061,0.418388 c 0.684778,0.230113 1.743916,0.703814 2.353634,1.052667 0.609719,0.348854 1.493565,0.982672 1.964102,1.408484 0.470537,0.425813 1.241807,1.286844 1.713935,1.913403 0.472129,0.626559 1.029515,1.488962 1.238641,1.91645 0.209121,0.427488 0.507526,1.236709 0.663122,1.798271 0.155591,0.56156 0.354944,1.443674 0.442999,1.960251 0.08806,0.516575 0.218412,2.507431 0.289685,4.424122 l 0.129589,3.484897 0.21434,1.161626 c 0.117888,0.638899 0.381598,1.820156 0.586021,2.625018 0.204424,0.804862 0.60832,2.144372 0.897549,2.976679 0.289224,0.832308 0.752056,2.093163 1.028504,2.801908 0.276454,0.708739 1.08699,2.455943 1.80119,3.882674 l 1.298542,2.59405 v 0.58928 0.589277 l -0.384212,0.356073 -0.38421,0.35608 H 84.646191 84.104232 Z M 57.988437,81.621614 c -0.168658,-0.06815 -0.446363,-0.301511 -0.617116,-0.518595 l -0.310463,-0.394687 0.0022,-0.88794 c 0.0011,-0.488368 0.09859,-1.297 0.216469,-1.796958 0.117877,-0.499959 0.418061,-1.312614 0.667068,-1.805898 0.249014,-0.493291 0.704744,-1.230656 1.012737,-1.638591 0.307993,-0.407935 0.905298,-1.023318 1.327338,-1.367522 0.42204,-0.344202 1.214334,-0.851465 1.760655,-1.127254 l 0.993304,-0.501441 1.692966,-0.37464 1.692966,-0.374645 1.398253,0.161722 1.398256,0.161721 1.248843,0.451883 c 0.686858,0.248536 1.625847,0.696325 2.086632,0.995082 0.460791,0.298762 1.202678,0.938484 1.64864,1.421611 l 0.810838,0.878412 0.593803,1.215667 0.59381,1.215667 0.228899,1.140861 c 0.12589,0.627472 0.228653,1.313557 0.22835,1.524637 -2.95e-4,0.21108 -0.130828,0.597476 -0.290073,0.858655 -0.159241,0.26118 -0.443329,0.544949 -0.63131,0.630595 l -0.34181,0.155723 -2.308528,-0.368455 c -1.269692,-0.202649 -3.157971,-0.442075 -4.196178,-0.532051 l -1.88765,-0.163604 -1.379435,0.09212 c -0.758691,0.05065 -2.196206,0.224169 -3.194483,0.385561 -0.998281,0.161396 -2.207099,0.385006 -2.686274,0.496912 -0.47917,0.111906 -1.001905,0.200291 -1.161628,0.196405 -0.159723,-0.0038 -0.428405,-0.06281 -0.597063,-0.130954 z m 33.984258,-0.35339 C 91.727782,81.16157 91.328419,80.821082 91.085223,80.511591 90.842032,80.202094 90.206646,79.219915 89.673254,78.328963 89.139868,77.438011 88.185935,75.605785 87.553398,74.257347 86.920865,72.908914 86.197671,71.187558 85.946297,70.432116 85.69493,69.676679 85.464811,68.877597 85.43493,68.656374 85.405073,68.435158 85.275426,67.814408 85.14688,67.276939 L 84.913167,66.29972 84.787508,61.871005 84.661854,57.442287 84.432071,56.066839 C 84.305692,55.310344 84.010745,54.119653 83.776626,53.420861 83.542513,52.72207 83.144659,51.74015 82.892511,51.238816 82.640364,50.737482 82.233522,50.065934 81.988415,49.746485 81.743309,49.427036 81.059184,48.626246 80.468146,47.966951 79.877103,47.307654 78.828244,46.313081 78.137352,45.756787 l -1.256169,-1.011444 -1.161632,-0.567441 c -0.638899,-0.312093 -1.684367,-0.737661 -2.32326,-0.945706 -0.638898,-0.208046 -1.945732,-0.517794 -2.904078,-0.68833 l -1.742445,-0.310066 -1.88765,0.08439 c -1.038207,0.04641 -2.450976,0.183769 -3.139482,0.305234 -0.688504,0.121464 -1.831982,0.424146 -2.541061,0.672627 -0.709086,0.24848 -1.779304,0.717534 -2.378272,1.042341 -0.598962,0.324807 -1.611759,0.952394 -2.250658,1.394636 l -1.161633,0.804077 -1.898436,1.895098 -1.898433,1.895099 -0.51449,0.79862 c -0.282968,0.439241 -1.182454,1.942101 -1.998857,3.339687 -0.816403,1.397588 -1.756177,2.908648 -2.088394,3.357912 -0.332211,0.449266 -1.094085,1.394709 -1.693054,2.100995 -0.598962,0.70628 -1.275624,1.465844 -1.503695,1.687917 l -0.414663,0.403775 h -0.481717 -0.481716 l -0.446752,-0.37592 -0.446752,-0.375918 v -0.634998 -0.634996 l 1.061575,-1.276047 c 0.583869,-0.701822 1.420623,-1.766106 1.859455,-2.365072 0.438828,-0.598965 1.338506,-2.066765 1.999285,-3.261777 0.660775,-1.195011 1.504891,-2.625085 1.875822,-3.17794 0.370924,-0.552856 1.142193,-1.540259 1.713935,-2.194229 0.571742,-0.65397 1.520872,-1.620835 2.109183,-2.148589 0.588305,-0.527754 1.500457,-1.28506 2.026994,-1.682903 0.526536,-0.397843 1.390115,-0.988236 1.919056,-1.311984 0.528946,-0.323749 1.369117,-0.79429 1.867056,-1.045649 0.497933,-0.251357 1.65995,-0.703456 2.582261,-1.004664 0.922305,-0.301208 2.363009,-0.6688 3.201561,-0.816872 l 1.524638,-0.269221 2.39586,0.0023 2.395868,0.0023 1.509957,0.334534 c 0.830474,0.183993 2.093876,0.525349 2.80756,0.758571 0.713685,0.233221 1.90099,0.713632 2.638453,1.067582 l 1.340849,0.643543 1.223432,0.90712 c 0.672887,0.498916 1.768778,1.463631 2.435314,2.14381 0.666536,0.68018 1.490739,1.599692 1.831555,2.043361 0.340823,0.44367 0.847438,1.166051 1.125817,1.605292 0.278375,0.439242 0.772127,1.452038 1.09722,2.250659 0.325093,0.798622 0.690964,1.844089 0.813039,2.323262 0.122081,0.479172 0.327832,1.488225 0.457234,2.242339 l 0.235272,1.371117 0.06059,3.34801 c 0.03332,1.8414 0.09961,3.805396 0.147294,4.364428 0.04769,0.559037 0.216809,1.667639 0.375825,2.463567 l 0.289119,1.447135 0.66421,1.747346 c 0.365315,0.96104 1.136787,2.727475 1.714385,3.925405 l 1.050166,2.178056 0.925466,1.356188 c 0.509008,0.745904 1.005103,1.501978 1.102444,1.680163 l 0.176972,0.323974 -0.146316,0.529912 -0.146316,0.529917 -0.317076,0.222085 c -0.174387,0.122152 -0.482221,0.219531 -0.684076,0.216403 -0.201849,-0.0033 -0.567385,-0.09295 -0.812293,-0.199604 z m 22.371065,-1.40373 c -0.47917,-0.160855 -1.65532,-0.675828 -2.61367,-1.144384 l -1.74244,-0.851927 -1.16776,-0.860016 c -0.64228,-0.473012 -1.81122,-1.475048 -2.59764,-2.226741 -0.78643,-0.751701 -1.83605,-1.889454 -2.3325,-2.528352 -0.49644,-0.638899 -1.23321,-1.782377 -1.63726,-2.541068 -0.40405,-0.758686 -0.94063,-1.967504 -1.19239,-2.686264 -0.25177,-0.718761 -0.58379,-1.829568 -0.73782,-2.468467 l -0.28007,-1.161633 -0.149866,-2.75887 C 99.809924,59.11939 99.679459,57.038377 99.602446,56.012294 L 99.462419,54.146689 99.086808,52.4548 C 98.880223,51.524261 98.492137,50.142166 98.224399,49.383476 97.956655,48.624786 97.572,47.607496 97.369613,47.122833 l -0.367988,-0.881207 0.08733,-0.538096 0.08731,-0.538096 0.427176,-0.359444 0.427176,-0.359444 h 0.40489 0.404889 l 0.399281,0.314077 0.399286,0.314077 0.413367,0.921305 c 0.22734,0.506717 0.736,1.917797 1.13035,3.135734 l 0.71699,2.214429 0.3165,1.813827 0.31649,1.813827 0.1232,3.630095 0.1232,3.630098 0.23664,1.212391 c 0.13016,0.666816 0.40441,1.679609 0.60946,2.250659 0.20504,0.57105 0.56925,1.429107 0.80934,1.906801 0.24009,0.477694 0.71908,1.297411 1.06441,1.821593 0.34534,0.524188 1.04553,1.442548 1.556,2.040808 0.51045,0.598254 1.44449,1.515017 2.07562,2.037251 0.63114,0.522234 1.45299,1.15671 1.82633,1.409944 0.37334,0.253234 1.25545,0.748192 1.96026,1.099902 0.70478,0.351717 1.78473,0.805812 2.39986,1.009099 0.61514,0.203292 1.27828,0.474357 1.47366,0.602365 0.19536,0.128014 0.43456,0.424317 0.53155,0.658464 l 0.17634,0.425711 -0.0949,0.378338 c -0.0522,0.208078 -0.25268,0.536058 -0.44546,0.728836 l -0.3505,0.350503 -0.69632,-0.0049 -0.69632,-0.0049 z m -64.973932,-2.379161 -0.487808,-0.50329 0.01992,-0.53023 0.01992,-0.530236 0.353801,-0.600021 c 0.194583,-0.330011 1.491177,-1.972196 2.881314,-3.649296 1.390137,-1.677106 2.748586,-3.198609 3.018778,-3.38113 l 0.491254,-0.331855 0.442807,0.09523 c 0.243542,0.05235 0.617056,0.184244 0.830024,0.293028 l 0.387213,0.197793 0.16166,0.489823 0.161655,0.489822 -0.137727,0.362248 c -0.07575,0.199236 -1.129505,1.559119 -2.341683,3.021961 -1.212177,1.462836 -2.366965,2.906032 -2.566197,3.207093 -0.199236,0.301056 -0.666634,0.785917 -1.038668,1.077463 l -0.67642,0.530082 -0.634574,-0.08502 -0.634579,-0.08502 0.180445,0.217424 c 0.09925,0.119579 0.15259,0.217419 0.118547,0.217419 -0.03403,0 -0.281414,-0.226479 -0.549707,-0.50329 z M 25.633732,75.296766 c -0.873265,-0.105545 -2.180099,-0.298268 -2.904078,-0.428273 -0.723979,-0.130011 -1.823409,-0.370617 -2.443171,-0.534692 -0.619768,-0.16407 -1.16374,-0.358011 -1.208835,-0.430974 -0.04511,-0.07297 -0.07471,-1.511818 -0.06582,-3.197452 l 0.01619,-3.064773 0.199226,-0.284438 c 0.109575,-0.156441 0.343167,-0.385259 0.519096,-0.508482 l 0.319869,-0.224042 2.828436,0.02645 2.828431,0.02645 0.204691,-0.169876 0.204699,-0.169882 v -1.230353 -1.230348 l 0.247723,-0.419367 0.247729,-0.419372 0.463935,-0.220152 0.463935,-0.220152 h 3.295797 3.295802 l 0.500249,0.23739 0.500255,0.237385 0.211409,0.408818 0.211409,0.408825 v 1.223663 1.223663 l 0.204666,0.169854 0.204658,0.169855 2.880919,-0.03095 2.880919,-0.03095 0.320599,0.200412 c 0.17633,0.110226 0.424784,0.39877 0.552117,0.641214 l 0.231523,0.440797 -0.04391,3.026577 -0.0439,3.026581 -0.580819,0.202931 c -0.319447,0.11161 -1.397585,0.362857 -2.39586,0.558335 -0.998276,0.195472 -2.697164,0.457333 -3.775301,0.581911 -1.078139,0.124578 -2.237954,0.226589 -2.577367,0.226682 l -0.617116,1.75e-4 v -0.195294 c 0,-0.107418 -0.119496,-0.303444 -0.265543,-0.435613 l -0.265538,-0.240314 h -1.486451 -1.486452 l -0.280861,0.150317 -0.280859,0.150311 v 0.285301 0.285293 l -0.762324,-0.01575 c -0.419275,-0.0086 -1.476805,-0.102109 -2.350064,-0.207645 z m 7.395895,-9.505258 v -0.798622 l -1.672199,-0.0726 c -0.919715,-0.03996 -1.899843,-0.03996 -2.178057,0 l -0.505859,0.0726 -0.04352,0.751979 -0.04352,0.751979 0.406541,0.06322 c 0.223599,0.0348 1.223313,0.05577 2.221589,0.04665 l 1.815047,-0.01658 z m 82.983963,6.109471 c -0.19965,-0.06177 -0.63156,-0.249519 -0.95978,-0.417205 -0.32824,-0.167686 -1.24599,-0.788046 -2.03947,-1.378579 -0.79349,-0.590527 -1.77001,-1.400993 -2.17006,-1.801036 -0.40004,-0.400044 -0.97067,-1.093933 -1.26806,-1.541975 -0.2974,-0.448046 -0.73516,-1.271557 -0.97281,-1.830017 -0.23765,-0.558467 -0.52981,-1.479959 -0.64925,-2.047772 l -0.21717,-1.032379 -3.5e-4,-1.261036 c -1.9e-4,-0.693576 -0.0672,-2.136865 -0.14883,-3.207316 l -0.14846,-1.946273 -0.44136,-2.264638 c -0.24274,-1.24555 -0.56825,-2.767294 -0.72337,-3.381651 -0.1551,-0.614358 -0.63217,-2.149888 -1.06013,-3.41229 -0.42797,-1.262402 -1.07882,-3.063147 -1.44633,-4.001655 -0.36751,-0.938509 -0.97433,-2.295643 -1.34848,-3.015854 l -0.68029,-1.309475 0.17523,-0.584884 0.17524,-0.584884 0.464,-0.282921 c 0.25521,-0.155607 0.59963,-0.283165 0.7654,-0.283464 l 0.3014,-5.42e-4 0.29366,0.326708 c 0.16152,0.179691 0.62433,0.882113 1.02847,1.560941 0.40414,0.678827 0.90864,1.626284 1.12111,2.105455 0.21246,0.479173 0.60059,1.426628 0.86251,2.105456 0.26191,0.678828 0.64231,1.789636 0.84533,2.468464 0.20301,0.678829 0.6706,2.312372 1.03907,3.630096 0.36848,1.317724 0.83353,3.244228 1.03346,4.281119 0.19992,1.03689 0.42469,2.441737 0.4995,3.121882 0.0748,0.680144 0.1772,2.400585 0.22754,3.8232 l 0.0915,2.586574 0.28873,0.879489 c 0.15879,0.483719 0.45898,1.149327 0.66709,1.479136 0.20811,0.329802 0.74303,0.983019 1.18872,1.451591 0.4457,0.468573 1.2024,1.129418 1.68157,1.46855 0.47917,0.339132 1.35109,0.869319 1.93758,1.178201 l 1.06638,0.561595 0.20416,0.394802 c 0.11228,0.217144 0.20416,0.623099 0.20416,0.902132 v 0.507328 l -0.32671,0.360294 -0.32671,0.360299 -0.43561,0.07243 c -0.23959,0.03984 -0.59897,0.0219 -0.79862,-0.03989 z M 66.012742,68.10766 c -0.387288,-0.06498 -1.053715,-0.289175 -1.480941,-0.498196 l -0.77678,-0.38004 -0.680685,-0.682661 -0.680684,-0.682654 -0.452037,-0.943824 -0.452042,-0.943824 V 62.52442 61.072383 l 0.389155,-0.830288 0.389155,-0.830282 0.662717,-0.708498 0.662711,-0.708494 0.908382,-0.455006 0.908383,-0.455006 0.798622,-0.11627 0.798621,-0.116271 0.86736,0.112335 0.867361,0.112335 0.800631,0.391713 0.80063,0.391712 0.698049,0.698047 0.698048,0.698053 0.353852,0.762753 c 0.194615,0.41952 0.432439,1.113145 0.528491,1.541397 l 0.17465,0.778635 -0.172516,1.006031 -0.172515,1.006025 -0.359208,0.708865 -0.359208,0.708865 -0.746589,0.734907 -0.74659,0.734905 -0.744999,0.351815 c -0.409751,0.193503 -1.132718,0.423253 -1.606592,0.510567 -0.473874,0.08731 -0.931267,0.151058 -1.016425,0.141668 -0.08516,-0.0094 -0.471712,-0.07026 -0.859007,-0.135236 z m 50.127338,-4.094901 c -0.12068,-0.09982 -0.32455,-0.35181 -0.45304,-0.559953 -0.12849,-0.20815 -0.36894,-0.790681 -0.53435,-1.294514 l -0.30072,-0.916066 v -2.650229 -2.650229 l -0.4328,-2.952438 c -0.23805,-1.62384 -0.56362,-3.4425 -0.72353,-4.041466 -0.1599,-0.598966 -0.29184,-1.28685 -0.29322,-1.528632 -0.001,-0.241782 0.0958,-0.579825 0.21578,-0.751208 0.12003,-0.171383 0.45058,-0.388282 0.73455,-0.481999 l 0.5163,-0.170395 0.42578,0.176367 0.42578,0.176367 0.29203,0.472498 c 0.16061,0.259873 0.41939,0.987279 0.57509,1.616458 0.15568,0.629179 0.4156,2.058745 0.57758,3.176815 0.16198,1.118069 0.35956,2.784282 0.43906,3.702697 0.0795,0.918414 0.15069,3.131004 0.15817,4.91686 l 0.0136,3.247013 -0.32578,0.346783 -0.32577,0.346776 h -0.38256 c -0.2104,0 -0.48128,-0.08168 -0.60197,-0.181505 z M 18.62054,59.559167 c -0.258233,-0.04621 -0.601278,-0.197734 -0.762319,-0.336712 L 17.565425,58.96977 v -0.516845 c 0,-0.284263 0.09559,-0.701708 0.212435,-0.927651 0.11684,-0.225942 0.329199,-0.457321 0.47191,-0.514175 0.142715,-0.05685 0.814882,-0.299222 1.493712,-0.538598 0.678829,-0.239374 1.769364,-0.724785 2.423408,-1.078689 0.654052,-0.353904 1.699519,-1.024269 2.32326,-1.489699 0.623746,-0.46543 1.498399,-1.23192 1.943669,-1.703311 0.445276,-0.471392 0.995428,-1.151113 1.222571,-1.510492 0.227139,-0.35938 0.577291,-0.902996 0.778103,-1.208036 0.200817,-0.30504 0.553878,-0.652227 0.784584,-0.771529 l 0.419459,-0.216911 0.423242,0.09296 0.423247,0.09296 0.292176,0.371443 0.292177,0.371442 v 0.566061 0.56606 l -0.348143,0.687029 c -0.191483,0.377867 -0.645402,1.082466 -1.008715,1.565777 -0.363307,0.483311 -1.170434,1.365775 -1.79361,1.961031 -0.623175,0.595257 -1.751035,1.495574 -2.506356,2.000708 -0.755316,0.505133 -1.99681,1.229202 -2.75887,1.609042 -0.762061,0.379842 -1.679602,0.793607 -2.03898,0.91948 -0.359377,0.125868 -0.84944,0.255066 -1.089031,0.287106 -0.239585,0.03205 -0.646894,0.02047 -0.905133,-0.02579 z m 15.715922,-1.05032 c -0.159724,-0.08737 -0.372083,-0.261219 -0.47191,-0.386345 L 33.683047,57.894995 V 57.189518 56.48404 l 0.23588,-0.464701 c 0.129732,-0.255586 1.195362,-1.738865 2.368064,-3.296176 1.172707,-1.557311 2.348344,-3.148368 2.612538,-3.535681 l 0.480354,-0.704208 0.486608,-0.203316 c 0.267627,-0.111825 0.67749,-0.203317 0.910791,-0.203317 h 0.42419 l 0.320885,0.259837 0.320884,0.259836 0.07166,0.647687 0.07165,0.647688 -0.71286,1.089028 c -0.392075,0.598966 -1.504507,2.113308 -2.472077,3.365204 -0.967572,1.251897 -1.992338,2.615069 -2.27726,3.029273 -0.284921,0.414203 -0.518041,0.800619 -0.518041,0.858698 0,0.05809 -0.166429,0.181434 -0.369843,0.274116 -0.203414,0.09268 -0.513783,0.166523 -0.689718,0.164097 -0.175929,-0.0022 -0.45056,-0.0759 -0.610283,-0.163258 z M 19.754019,49.436495 19.453072,49.053904 v -0.359637 c 0,-0.197799 0.235733,-0.989424 0.523854,-1.759165 0.288115,-0.76974 0.910692,-2.368815 1.383507,-3.553499 0.472814,-1.184685 1.051442,-2.533887 1.285841,-2.998227 0.2344,-0.464339 0.608282,-0.987949 0.830848,-1.163575 l 0.404664,-0.319321 0.64769,0.07238 0.647686,0.07238 0.259836,0.320885 0.25984,0.320884 v 0.552683 0.552691 l -0.306088,0.701756 c -0.168351,0.385966 -0.780533,1.845236 -1.360408,3.242823 -0.579875,1.397586 -1.203138,2.951701 -1.385034,3.453587 l -0.330712,0.912519 -0.425475,0.358014 -0.425475,0.358013 h -0.704337 -0.704344 z m 11.286624,-5.281471 c -0.362633,-0.240199 -0.827577,-0.681256 -1.033202,-0.980126 -0.205631,-0.29887 -0.443097,-0.727959 -0.527712,-0.95353 l -0.15384,-0.410131 -0.0049,-9.028117 -0.0049,-9.028117 0.211241,-0.696264 c 0.116176,-0.382947 0.382311,-0.920559 0.591404,-1.194695 0.209094,-0.274136 0.66557,-0.665685 1.014395,-0.870109 l 0.634223,-0.371681 5.205308,-0.01228 5.205308,-0.01228 0.649419,0.177211 0.649414,0.177212 2.284064,2.256184 2.284064,2.256184 0.224707,0.659465 0.224701,0.659464 -0.0011,7.05282 -0.0011,7.052819 -0.14254,0.871223 -0.14254,0.871222 -0.403611,0.574519 -0.403611,0.574518 -0.776423,0.405607 -0.776423,0.405608 h -7.073512 -7.073512 z m 14.710062,-2.268514 0.196509,-0.236777 -0.01152,-7.481782 -0.01152,-7.481781 -1.894025,-1.864895 -1.89403,-1.864893 h -4.78755 -4.787555 l -0.382811,0.38281 -0.382811,0.382811 v 8.877924 8.877925 l 0.22604,0.322716 0.22604,0.322717 h 6.653361 6.653366 z M 34.772073,39.051537 c -0.159724,-0.08737 -0.372083,-0.261218 -0.47191,-0.386346 -0.09982,-0.125128 -0.181505,-0.443714 -0.181505,-0.707967 v -0.480461 l 0.282309,-0.282308 c 0.155267,-0.15527 0.506874,-0.324439 0.781351,-0.37593 0.274472,-0.0515 1.26404,-0.07147 2.199044,-0.04439 l 1.700001,0.04922 0.350125,0.407407 0.350119,0.407408 v 0.364459 c 0,0.200451 -0.06396,0.483972 -0.142139,0.630046 -0.07817,0.146073 -0.349296,0.337803 -0.602486,0.426066 l -0.46034,0.160477 -1.757083,-0.0044 -1.757077,-0.0044 z m -0.03123,-4.98518 -0.466855,-0.201415 -0.0934,-0.372146 c -0.05136,-0.20468 -0.05357,-0.530932 -0.0049,-0.725003 0.04874,-0.19407 0.191148,-0.455438 0.316522,-0.580816 l 0.227961,-0.227958 h 3.815023 3.815023 l 0.223138,0.254107 c 0.122723,0.139758 0.269467,0.405941 0.326092,0.591519 l 0.102961,0.337412 -0.168202,0.406072 -0.168197,0.406072 -0.353653,0.161134 -0.353654,0.161136 -3.375531,-0.0043 -3.375533,-0.0043 z m -0.04138,-5.156618 -0.29041,-0.290409 v -0.514813 -0.514813 l 0.354966,-0.354965 0.354965,-0.354964 3.819644,0.02926 3.819649,0.02925 0.326708,0.325712 c 0.179689,0.179141 0.334451,0.4757 0.343912,0.659019 0.0095,0.18332 0.0058,0.431322 -0.0082,0.551115 -0.01399,0.119792 -0.159647,0.332153 -0.323694,0.471912 l -0.298274,0.254107 h -3.904413 -3.904417 z m 59.751372,10.172305 -2.032856,-1.306147 -0.45427,-0.08982 -0.454277,-0.08982 -0.489547,0.252244 c -0.269259,0.138735 -1.282616,0.732593 -2.25191,1.319685 l -1.762356,1.06744 h -0.361615 -0.361622 l -0.182674,-0.220113 -0.18268,-0.220113 0.08526,-0.905216 c 0.04687,-0.497869 0.247121,-1.750571 0.444959,-2.783783 l 0.359706,-1.878567 -0.205669,-0.397719 c -0.11312,-0.218744 -0.983678,-1.062241 -1.934582,-1.874436 L 82.937785,30.47896 82.685638,30.010747 82.43349,29.542534 82.59756,29.235966 c 0.09024,-0.168613 0.278485,-0.340419 0.418331,-0.381792 0.139845,-0.04138 0.973019,-0.205607 1.851503,-0.364962 0.878483,-0.159357 1.923951,-0.329929 2.323259,-0.379047 0.399314,-0.04912 1.004604,-0.189089 1.345097,-0.311046 l 0.619075,-0.22174 0.556217,-1.185173 c 0.305919,-0.651845 0.70167,-1.55349 0.879455,-2.003655 0.177779,-0.450165 0.451143,-0.955773 0.607474,-1.123573 0.156326,-0.167798 0.455889,-0.348172 0.665696,-0.400831 l 0.381467,-0.09574 0.231633,0.14471 0.231633,0.144711 0.80647,1.955251 c 0.443558,1.075389 0.95121,2.189449 1.128116,2.475689 l 0.321648,0.520439 0.541727,0.213557 c 0.297951,0.117456 1.293153,0.324356 2.211568,0.459777 0.918414,0.135421 1.882697,0.277663 2.142857,0.316092 l 0.473014,0.06987 0.22874,0.349114 0.22875,0.349114 -0.0879,0.276791 c -0.0483,0.152234 -0.56013,0.722238 -1.137369,1.266674 -0.577241,0.544437 -1.426884,1.349377 -1.888098,1.788756 l -0.83858,0.798873 -0.08965,0.357178 -0.08964,0.357178 0.150711,0.742568 c 0.0829,0.408412 0.331526,1.521114 0.552523,2.472671 l 0.401801,1.730102 -0.209643,0.375352 -0.209637,0.375353 -0.431084,0.03998 -0.431083,0.03998 z m 16.564645,-0.344973 -0.59223,-0.627343 -0.27972,-0.715793 c -0.15384,-0.393686 -0.42165,-0.944488 -0.59511,-1.224006 -0.17347,-0.279517 -0.61963,-1.081005 -0.99147,-1.781084 -0.37183,-0.700078 -1.04331,-1.843558 -1.49217,-2.541066 -0.44886,-0.697508 -1.21123,-1.79093 -1.69416,-2.429827 -0.48293,-0.638897 -1.50084,-1.91306 -2.26202,-2.831474 -0.76118,-0.918414 -2.39982,-2.687076 -3.641428,-3.930359 l -2.257464,-2.260515 -1.844682,-1.369581 c -1.01457,-0.753269 -2.543207,-1.789091 -3.396968,-2.301828 -0.85376,-0.512737 -2.245268,-1.2735 -3.092246,-1.690587 -0.846982,-0.417085 -2.454746,-1.11927 -3.572814,-1.560412 -1.118069,-0.441139 -3.078323,-1.104446 -4.356115,-1.474012 -1.277792,-0.369566 -3.10736,-0.829726 -4.065705,-1.022578 -0.958346,-0.192851 -2.624563,-0.459422 -3.7027,-0.592379 l -1.960249,-0.241739 -3.412293,-0.0068 -3.41229,-0.0068 -1.669845,0.244792 c -0.918415,0.134634 -2.42127,0.377834 -3.339684,0.540443 -0.918415,0.162609 -2.418114,0.492706 -3.332666,0.733549 -0.91455,0.240842 -2.3194,0.654315 -3.12188,0.918827 -0.802485,0.264514 -1.671201,0.526629 -1.930471,0.582482 l -0.47141,0.101554 -0.511242,-0.168726 -0.511242,-0.168724 -0.230633,-0.445993 -0.230635,-0.445993 0.08251,-0.508403 0.0825,-0.508404 0.388205,-0.405203 0.388212,-0.405203 1.976806,-0.6564701 C 53.049408,9.1764088 54.755736,8.6880751 55.754012,8.4522815 56.752288,8.2164877 58.593985,7.8538883 59.846669,7.6465048 61.099353,7.4391219 63.026931,7.1969225 64.130182,7.108285 l 2.005904,-0.16116 3.557495,0.087421 3.557492,0.087421 1.569278,0.2153043 c 0.8631,0.1184178 2.20261,0.3523364 2.976679,0.5198197 0.774068,0.1674828 2.366543,0.5598585 3.538822,0.8719449 l 2.13142,0.5674309 2.758788,1.0878582 c 1.517339,0.598322 3.433233,1.425187 4.257549,1.837478 0.824318,0.412291 2.348198,1.275577 3.386405,1.918413 1.038207,0.642836 2.671754,1.757982 3.630099,2.478103 0.958345,0.72012 2.367004,1.882865 3.130357,2.583877 0.76335,0.701011 2.14919,2.110184 3.07965,3.131495 0.93045,1.02131 2.18902,2.477674 2.79683,3.236364 0.60781,0.75869 1.66978,2.228878 2.35994,3.267085 0.69016,1.038208 1.75789,2.723658 2.37274,3.745447 0.61485,1.021788 1.39022,2.478723 1.72305,3.237634 l 0.60515,1.379839 0.0246,0.637327 0.0246,0.637327 -0.42619,0.444851 -0.42619,0.444851 h -0.57846 -0.57854 z m -57.083106,-1.76192 -0.356408,-0.35641 v -0.495232 -0.495231 l 0.276804,-0.351897 0.2768,-0.351897 1.864954,-0.895862 c 1.025728,-0.492725 2.453029,-1.086809 3.171789,-1.320189 0.718761,-0.233379 1.862239,-0.560275 2.541068,-0.726437 0.67883,-0.166162 1.928704,-0.402661 2.777508,-0.525555 l 1.543275,-0.223442 h 1.63257 1.632578 l 1.543275,0.220273 c 0.848804,0.12115 2.000667,0.325567 2.559704,0.454262 0.559032,0.128693 1.865867,0.559363 2.904073,0.957043 1.038207,0.397681 2.149021,0.854054 2.468467,1.014164 0.319447,0.160109 0.727832,0.425807 0.907521,0.59044 l 0.326713,0.299332 -0.0044,0.591805 c -0.0028,0.325493 -0.08422,0.69548 -0.181505,0.822194 -0.09728,0.126714 -0.319606,0.306403 -0.494048,0.399311 -0.174437,0.09291 -0.495925,0.168921 -0.714413,0.168921 -0.218484,0 -1.284581,-0.354966 -2.369107,-0.788813 -1.08452,-0.433847 -2.559936,-0.959204 -3.27869,-1.167457 l -1.306834,-0.378644 -1.887654,-0.225943 -1.88765,-0.225943 -1.452036,0.08604 -1.452042,0.08604 -1.524638,0.351733 c -0.838553,0.193453 -2.112717,0.546242 -2.831477,0.783974 -0.718754,0.237733 -2.13328,0.798448 -3.143377,1.246034 l -1.836549,0.813792 H 54.9638 54.288982 Z m 0.08614,-8.616955 -0.442548,-0.442545 0.0033,-0.555684 0.0033,-0.555684 0.250878,-0.325157 0.250875,-0.325159 1.234233,-0.525635 c 0.67883,-0.2891 1.674087,-0.677546 2.211687,-0.863215 0.537596,-0.185667 1.844431,-0.535574 2.904073,-0.77757 1.059643,-0.241995 2.77607,-0.539742 3.814278,-0.661658 l 1.887647,-0.221668 1.960249,0.0015 1.960256,0.0015 1.53574,0.204465 c 0.844655,0.112456 1.922793,0.300359 2.39586,0.41756 0.473067,0.117203 1.513541,0.359814 2.312163,0.539137 0.798621,0.179322 1.622527,0.411784 1.830896,0.516581 l 0.37886,0.190543 0.182268,0.440039 0.182273,0.440039 -0.09461,0.504341 -0.09462,0.504341 -0.377192,0.296699 -0.377191,0.2967 -0.670136,-0.0036 -0.670136,-0.0036 -1.234234,-0.356905 c -0.678846,-0.196158 -2.247047,-0.528879 -3.484908,-0.739239 l -2.250658,-0.382474 -2.323262,0.08702 c -1.277797,0.04785 -2.976678,0.186945 -3.775301,0.309084 -0.798621,0.122139 -2.069367,0.390191 -2.823876,0.595671 -0.754509,0.205481 -2.192029,0.671463 -3.194482,1.035516 -1.002458,0.364053 -2.09723,0.693343 -2.432828,0.731754 l -0.610185,0.06984 z m -3.19856,-7.185562 c -0.19808,-0.100226 -0.442148,-0.344293 -0.54237,-0.542374 -0.100225,-0.198082 -0.183191,-0.504893 -0.18437,-0.681804 l -0.0022,-0.321656 0.437412,-0.498184 0.437411,-0.498185 1.776949,-0.723823 c 0.977323,-0.398102 2.103656,-0.829411 2.502965,-0.958463 0.399314,-0.129053 1.60485,-0.432774 2.678976,-0.674936 1.07412,-0.242164 2.740338,-0.57229 3.702694,-0.733615 l 1.749745,-0.293316 3.208888,-0.0859 3.208886,-0.0859 1.873246,0.17572 c 1.030288,0.09664 2.428651,0.270876 3.107481,0.387176 0.678824,0.116302 2.018334,0.401119 2.976679,0.632928 0.958345,0.231809 2.755238,0.744603 3.993105,1.139539 l 2.250658,0.718067 0.685695,0.414203 0.685689,0.414204 0.165677,0.39998 0.165678,0.399981 -0.09649,0.384434 c -0.05307,0.211438 -0.292555,0.580503 -0.5322,0.820143 l -0.435705,0.43571 -0.63537,-0.08709 c -0.349445,-0.04791 -1.832576,-0.485781 -3.295841,-0.973059 -1.46327,-0.487279 -3.497305,-1.077056 -4.52009,-1.310617 -1.022781,-0.233562 -2.656328,-0.529387 -3.630095,-0.657389 l -1.770489,-0.232733 -3.630102,0.0737 -3.630093,0.07369 -1.379435,0.239753 c -0.758691,0.131865 -2.261552,0.461769 -3.339689,0.733117 -1.078139,0.27135 -2.580999,0.684338 -3.339684,0.917752 -0.758692,0.233415 -1.851938,0.595627 -2.429442,0.804917 -0.577498,0.209291 -1.230913,0.379564 -1.452037,0.378388 -0.221117,-0.0011 -0.564102,-0.08414 -0.762187,-0.184367 z"
       id="path2" /><path
       style="display:none;fill:#40f9f9;fill-opacity:1;stroke-width:1"
       d="m 77.715711,128.1822 c -0.290563,-0.18492 -1.139623,-0.90308 -1.886782,-1.59587 -0.747176,-0.69281 -1.799996,-1.65085 -2.339612,-2.12897 -0.539627,-0.47812 -1.762259,-1.61685 -2.716979,-2.53052 -0.954713,-0.91367 -2.233723,-2.00793 -2.842244,-2.43171 -0.608525,-0.42377 -1.336532,-0.8691 -1.617789,-0.98963 -0.281257,-0.12053 -0.783043,-0.21914 -1.115072,-0.21914 h -0.603695 l -1.523866,0.80675 -1.523853,0.80674 -1.377503,1.0726 c -0.757633,0.58993 -1.857122,1.40111 -2.443318,1.80262 -0.586192,0.40152 -2.186559,1.41695 -3.556371,2.25651 l -2.490555,1.52649 -0.566033,0.002 -0.56604,0.002 -0.388631,-0.39859 -0.388631,-0.39857 -0.07212,-0.60415 -0.07213,-0.60415 0.289291,-0.47225 0.289292,-0.47227 2.548816,-1.60254 c 1.401845,-0.88141 3.363907,-2.17089 4.360131,-2.86552 0.996224,-0.69462 2.366473,-1.66018 3.045007,-2.14567 0.678527,-0.48549 1.765314,-1.14305 2.415083,-1.46126 l 1.181394,-0.57852 h 1.509428 1.509433 l 1.28301,0.65824 1.283009,0.65824 2.943385,2.64957 c 1.618865,1.45726 3.860366,3.46859 4.98112,4.46963 1.120743,1.00104 2.192175,1.99184 2.380953,2.20176 0.188762,0.20993 0.39838,0.58441 0.465794,0.83219 l 0.122559,0.45051 -0.130282,0.50232 -0.130282,0.50232 -0.35728,0.24009 c -0.196506,0.13205 -0.585219,0.27508 -0.863801,0.31781 l -0.506534,0.0777 z m 9.886752,-4.1383 c -0.415093,-0.23602 -1.399985,-0.87372 -2.188666,-1.41711 -0.788681,-0.54338 -2.011316,-1.441 -2.716972,-1.99471 -0.705661,-0.5537 -1.758487,-1.40521 -2.339618,-1.89222 -0.581126,-0.48702 -1.667913,-1.46823 -2.415088,-2.18047 -0.747161,-0.71225 -1.867914,-1.70716 -2.490549,-2.2109 -0.622642,-0.50374 -1.421267,-1.18416 -1.774736,-1.51204 -0.353469,-0.32787 -1.307005,-1.04255 -2.118976,-1.58819 l -1.476312,-0.99206 -1.187889,-0.40896 c -0.653349,-0.22494 -1.643007,-0.45885 -2.199249,-0.51982 l -1.011354,-0.11082 -1.343181,0.11008 -1.343177,0.11006 -0.980089,0.34413 c -0.539048,0.18929 -1.444349,0.58206 -2.011791,0.87283 -0.567443,0.29078 -2.061784,1.24445 -3.32075,2.11926 -1.258962,0.8748 -3.545624,2.41962 -5.081465,3.43295 l -2.792442,1.84241 -3.08102,1.58933 c -1.694554,0.87412 -3.316962,1.65614 -3.605336,1.7378 l -0.524333,0.14848 -0.488118,-0.20916 c -0.268468,-0.11506 -0.598881,-0.37136 -0.734262,-0.56959 l -0.246144,-0.36042 v -0.51507 c 0,-0.28327 0.09781,-0.70904 0.217351,-0.94613 l 0.217347,-0.43106 2.763777,-1.40701 c 1.520071,-0.77386 3.748669,-2.01274 4.952436,-2.75305 1.203768,-0.74032 3.64904,-2.34092 5.433945,-3.55689 1.784904,-1.21598 3.822623,-2.52751 4.528284,-2.91453 0.705655,-0.38701 1.89433,-0.91152 2.6415,-1.1656 0.747166,-0.25408 1.929112,-0.54614 2.626531,-0.64902 l 1.26806,-0.18705 1.448912,0.0898 1.448929,0.0898 1.333176,0.3847 c 0.733252,0.2116 1.830628,0.62698 2.438619,0.9231 0.607981,0.29613 1.638237,0.90645 2.289441,1.35627 0.65121,0.44983 2.164365,1.6929 3.362565,2.76237 1.198195,1.06949 2.82838,2.52731 3.622629,3.23959 0.794236,0.71229 2.462934,2.07454 3.708223,3.02723 1.245277,0.95269 2.899501,2.14632 3.676064,2.65251 0.776552,0.50619 1.616217,1.15805 1.86592,1.44857 l 0.453999,0.52823 -0.07749,0.70512 -0.0775,0.70514 -0.400617,0.35342 -0.400623,0.35342 -0.557617,-0.003 -0.557624,-0.003 z m 7.99081,-5.53596 c -0.558446,-0.30384 -1.667858,-0.97707 -2.465353,-1.49604 -0.797501,-0.51898 -2.145229,-1.4207 -2.994948,-2.00381 -0.849721,-0.58311 -2.383918,-1.72033 -3.409327,-2.52716 -1.025398,-0.80681 -2.843373,-2.38237 -4.039931,-3.50123 -1.196562,-1.11886 -3.160464,-2.84507 -4.364231,-3.83603 l -2.188676,-1.80172 -2.18866,-1.11702 -2.188677,-1.11702 -1.811316,-0.49424 -1.811311,-0.49426 -2.566031,0.004 -2.566025,0.004 -1.761669,0.47381 c -0.968916,0.26059 -2.429286,0.7656 -3.245273,1.12223 -0.815977,0.35663 -2.264737,1.14174 -3.21944,1.74467 -0.954715,0.60293 -2.652828,1.73685 -3.773575,2.51983 -1.120748,0.78297 -2.479229,1.69884 -3.018856,2.03527 -0.539622,0.33643 -2.203769,1.31172 -3.698099,2.16731 -1.494335,0.8556 -3.090554,1.74867 -3.547151,1.98459 -0.456608,0.23594 -2.048668,0.94111 -3.537911,1.56708 -1.489244,0.62596 -2.881696,1.13784 -3.094326,1.13753 -0.212637,-3.2e-4 -0.595787,-0.13141 -0.851467,-0.29131 l -0.46486,-0.29073 -0.198205,-0.49074 -0.198193,-0.49075 0.178729,-0.61183 0.178735,-0.61184 0.344179,-0.23129 c 0.189302,-0.1272 1.256297,-0.60471 2.371107,-1.06114 1.11482,-0.45642 2.777144,-1.17387 3.694053,-1.59433 0.916922,-0.42046 2.682591,-1.35335 3.92371,-2.07308 1.241123,-0.71973 4.09091,-2.56114 6.332859,-4.09201 l 4.07625,-2.78341 1.53971,-0.79899 1.539694,-0.798986 1.931987,-0.633527 c 1.06259,-0.348435 2.509336,-0.778392 3.215002,-0.955448 l 1.28301,-0.321933 1.962253,-0.08581 1.962258,-0.08582 1.869758,0.328087 1.869753,0.328066 1.375509,0.483868 c 0.756538,0.266122 1.937097,0.749694 2.623468,1.074607 0.686372,0.324903 1.807125,0.938625 2.490555,1.363806 0.683435,0.42517 2.397322,1.72349 3.808632,2.88514 1.411328,1.16164 3.424659,2.91095 4.474084,3.88734 1.049431,0.97641 2.373956,2.14544 2.943385,2.59787 0.569434,0.45242 1.860037,1.41742 2.868013,2.14443 1.007975,0.727 2.841932,1.95043 4.075463,2.71869 1.23352,0.76827 2.461348,1.58124 2.728495,1.8066 l 0.485716,0.40974 0.09437,0.51586 0.09436,0.51587 -0.247733,0.53544 -0.247732,0.53541 -0.377191,0.17626 c -0.207445,0.097 -0.572114,0.17626 -0.810371,0.17626 H 96.60864 Z m 5.816987,-7.01049 c -0.86978,-0.49843 -2.226703,-1.30985 -3.015384,-1.80315 -0.78867,-0.49329 -2.248722,-1.46134 -3.244542,-2.15121 -0.99582,-0.68986 -2.316208,-1.66615 -2.934193,-2.16956 -0.617981,-0.50339 -2.486232,-2.14096 -4.15165,-3.63905 -1.665435,-1.49808 -3.537486,-3.148787 -4.160122,-3.668239 -0.622641,-0.519451 -1.709428,-1.348277 -2.415089,-1.841847 -0.705655,-0.493569 -2.437729,-1.480785 -3.84904,-2.193807 l -2.566031,-1.296411 -1.426844,-0.469384 c -0.784772,-0.25816 -2.21118,-0.652155 -3.169809,-0.875528 l -1.742941,-0.406146 -2.415084,-0.01011 -2.415089,-0.01011 -2.264141,0.43991 -2.264147,0.439917 -2.671473,0.908401 c -1.469315,0.499619 -3.099495,1.128243 -3.622633,1.396945 -0.523128,0.268698 -2.547369,1.583836 -4.498296,2.922522 -1.950944,1.338681 -4.362255,2.943687 -5.358474,3.566647 -0.996224,0.62298 -2.93207,1.71061 -4.301866,2.41698 -1.369812,0.70636 -3.339619,1.62797 -4.377347,2.04801 -1.037733,0.42005 -2.545666,0.9794 -3.350967,1.24299 -0.805301,0.2636 -1.738487,0.52425 -2.073753,0.57924 l -0.609585,0.1 -0.461651,-0.19611 -0.461657,-0.19612 -0.219295,-0.43494 c -0.12061,-0.2392 -0.21929,-0.68111 -0.21929,-0.98199 v -0.54707 l 0.415087,-0.45944 0.415099,-0.45944 2.188665,-0.72087 c 1.203773,-0.39647 3.037724,-1.07136 4.075453,-1.49976 1.037734,-0.4284 2.633958,-1.17344 3.547163,-1.655657 0.913204,-0.482226 2.474561,-1.388106 3.469682,-2.013056 0.995117,-0.624961 2.896996,-1.882664 4.226396,-2.794897 1.329398,-0.912243 3.164256,-2.256447 4.077467,-2.987133 l 1.660368,-1.328523 2.566026,-2.607409 c 1.411316,-1.434083 3.182253,-3.336623 3.935406,-4.227876 0.753164,-0.891242 1.850665,-2.226778 2.438908,-2.967845 0.588238,-0.741068 1.695586,-2.258941 2.460769,-3.373074 l 1.391246,-2.025673 0.42649,-0.226202 c 0.234567,-0.124402 0.582687,-0.225931 0.773605,-0.225607 0.190917,3.18e-4 0.56087,0.134252 0.822117,0.297626 l 0.475007,0.297056 0.180859,0.562028 0.180846,0.56203 -0.101811,0.416034 c -0.05602,0.228814 -0.605683,1.152017 -1.221551,2.051566 -0.615851,0.899556 -1.822107,2.537302 -2.68056,3.639437 -0.858442,1.102142 -2.414407,2.944347 -3.457676,4.093789 -1.043273,1.149453 -1.883217,2.104697 -1.866564,2.122783 0.01665,0.01812 0.695809,-0.172033 1.509215,-0.422507 0.813407,-0.250458 2.032937,-0.565571 2.710067,-0.700235 l 1.231141,-0.244831 2.264142,-0.08938 2.264142,-0.08936 1.555119,0.185967 c 0.855324,0.102277 2.044,0.317442 2.641511,0.478158 0.597501,0.160706 1.931742,0.579111 2.964967,0.929786 1.033236,0.350685 2.279823,0.841768 2.770201,1.091298 0.490378,0.249535 0.918608,0.453686 0.951614,0.453686 0.03302,0 -0.371509,-0.64438 -0.898958,-1.431958 -0.52745,-0.787577 -1.263596,-1.954446 -1.635885,-2.593023 -0.372283,-0.638578 -1.049496,-1.892525 -1.504924,-2.786529 -0.455418,-0.894005 -1.207785,-2.531097 -1.67193,-3.637955 -0.46414,-1.10688 -1.057651,-2.639478 -1.318898,-3.405768 C 71.118635,76.109174 70.707523,74.68107 70.466301,73.701914 70.225092,72.722765 69.85711,70.80702 69.648584,69.444726 l -0.379145,-2.476918 -0.04836,-4.3355 -0.04841,-4.3355 -0.277174,-0.481239 C 68.743035,57.550877 68.430241,57.220381 68.200389,57.081126 67.970528,56.94187 67.60993,56.827932 67.399074,56.827932 h -0.383381 l -0.37153,0.348315 -0.371513,0.348317 -0.86371,2.631723 c -0.475039,1.447447 -1.334513,3.7115 -1.909941,5.031228 -0.575422,1.319733 -1.357607,2.956815 -1.738187,3.637965 -0.380564,0.681157 -1.454917,2.426016 -2.387433,3.877465 l -1.695487,2.639011 -2.230651,2.779244 c -1.22686,1.528584 -2.844099,3.441033 -3.593879,4.249914 -0.749769,0.808858 -1.944967,2.01517 -2.655988,2.680673 -0.711037,0.665491 -2.617311,2.23509 -4.236176,3.487983 -1.618859,1.252887 -3.826394,2.837661 -4.905643,3.521705 -1.079238,0.684045 -2.60754,1.599516 -3.396204,2.034371 -0.788681,0.434865 -2.452827,1.256011 -3.698109,1.824772 -1.245278,0.568767 -3.049684,1.297882 -4.009786,1.62027 -0.960123,0.322388 -2.337091,0.73812 -3.059939,0.92385 l -1.314269,0.337679 -0.522424,-0.176831 -0.522422,-0.176825 -0.304427,-0.438473 -0.304427,-0.438466 V 97.02707 96.482313 l 0.38809,-0.473018 0.388086,-0.473025 1.083604,-0.319956 c 0.595989,-0.175985 1.966625,-0.601429 3.045863,-0.945422 1.079238,-0.344004 2.573579,-0.90499 3.320734,-1.246639 0.74717,-0.341649 2.513206,-1.248149 3.924527,-2.014446 l 2.566031,-1.393261 2.566014,-1.750092 c 1.411322,-0.962547 3.312639,-2.366372 4.225167,-3.11959 0.912511,-0.753235 2.60385,-2.309958 3.758516,-3.459411 1.15467,-1.149437 2.833652,-2.977805 3.731082,-4.063031 0.897425,-1.085225 2.132763,-2.652649 2.745187,-3.483162 0.612428,-0.830513 1.523482,-2.136986 2.024568,-2.903283 0.501082,-0.766303 1.18235,-1.849606 1.513942,-2.407347 0.331588,-0.557742 0.908331,-1.567859 1.281645,-2.244705 0.373316,-0.67684 0.932554,-1.822757 1.242762,-2.546481 0.310207,-0.723723 0.997441,-2.629167 1.527194,-4.234317 0.529748,-1.605152 1.100716,-3.146713 1.26883,-3.425687 0.168118,-0.278975 0.605644,-0.790824 0.9723,-1.137444 l 0.666634,-0.630216 0.868633,-0.258981 0.868621,-0.258982 0.955107,0.07863 0.955103,0.07863 0.815867,0.409388 0.815879,0.409388 0.535266,0.607642 c 0.294394,0.334204 0.667874,0.874229 0.829944,1.200057 0.162083,0.325826 0.368797,1.003561 0.459365,1.506075 l 0.164685,0.913661 0.0028,3.49343 0.0028,3.49343 0.215032,1.625475 c 0.118263,0.89401 0.356094,2.322103 0.528525,3.173551 0.172419,0.851442 0.523132,2.314361 0.779363,3.250944 0.256225,0.936583 0.908723,2.852326 1.450004,4.257195 0.541276,1.404879 1.447794,3.494774 2.014483,4.644211 0.566694,1.149452 1.511944,2.847379 2.10057,3.773178 0.588614,0.925806 2.084026,3.050532 3.323124,4.721616 1.239104,1.671089 2.509718,3.330682 2.823593,3.687967 0.313875,0.357302 1.589025,1.604073 2.833675,2.770618 1.244649,1.166522 2.908791,2.656327 3.698103,3.310667 0.789308,0.65434 2.136093,1.72379 2.992859,2.37658 0.85675,0.65279 2.344454,1.7152 3.305996,2.36093 0.961548,0.64572 2.386659,1.55202 3.166889,2.01401 0.78024,0.46197 1.75006,1.01222 2.15517,1.22276 0.4051,0.21053 0.84315,0.5389 0.97347,0.72969 l 0.23691,0.34693 v 0.72582 0.72583 l -0.46441,0.40079 -0.46441,0.40077 h -0.55792 -0.55793 z m 3.94402,-8.16176 c -1.361,-0.72743 -3.39652,-1.92627 -4.52338,-2.6641 -1.126866,-0.737828 -2.59445,-1.754142 -3.261302,-2.258489 -0.666847,-0.504337 -1.8917,-1.515084 -2.721879,-2.246121 -0.830185,-0.731014 -2.398928,-2.235825 -3.486096,-3.344001 -1.087158,-1.108182 -2.719199,-2.955333 -3.626749,-4.104775 -0.907544,-1.149442 -2.045486,-2.610856 -2.528768,-3.247589 -0.483282,-0.636739 -1.324257,-1.9255 -1.86884,-2.863939 -0.544583,-0.938433 -1.292677,-2.368036 -1.662439,-3.176894 -0.369756,-0.808875 -0.970149,-2.226004 -1.334208,-3.149168 -0.364057,-0.923174 -0.860767,-2.386105 -1.103799,-3.25096 -0.243028,-0.864845 -0.645861,-2.547728 -0.895176,-3.739747 -0.249321,-1.192015 -0.524857,-2.829102 -0.612309,-3.637966 -0.08745,-0.80887 -0.186279,-3.142585 -0.219623,-5.186042 L 77.449082,56.75053 77.13173,55.534709 C 76.957189,54.866005 76.558694,53.826832 76.246179,53.225433 L 75.677972,52.131982 74.847799,51.202444 74.017614,50.272903 72.927132,49.54098 c -0.599767,-0.402557 -1.516748,-0.88603 -2.037731,-1.074381 l -0.947247,-0.342458 -1.683377,-0.07901 -1.683364,-0.07901 -1.161537,0.265035 -1.161543,0.265034 -1.230556,0.641032 -1.230534,0.641031 -1.285723,1.318837 -1.285728,1.318838 -0.469129,0.928843 c -0.258016,0.510864 -0.823618,2.043454 -1.256881,3.405757 l -0.787758,2.476914 -1.398763,2.957311 -1.398756,2.957316 -1.566597,2.383534 c -0.861636,1.310939 -2.107704,3.080165 -2.769039,3.931596 -0.661346,0.851442 -2.075069,2.464414 -3.1416,3.584384 -1.066542,1.119969 -2.529859,2.563649 -3.251818,3.2082 -0.72196,0.644535 -2.059835,1.768902 -2.973034,2.498578 -0.913199,0.729686 -2.509423,1.91011 -3.547157,2.623182 -1.037723,0.713067 -2.640748,1.719399 -3.562238,2.236287 -0.921506,0.516877 -2.452445,1.281712 -3.402084,1.699618 -0.949631,0.41791 -2.475358,1.003 -3.390489,1.300198 -0.915136,0.297199 -2.265561,0.694954 -3.000937,0.883902 l -1.337051,0.343537 -0.578708,-0.177835 -0.578708,-0.177825 -0.260297,-0.40743 -0.260298,-0.407435 0.01534,-0.600233 0.01534,-0.600232 0.335938,-0.366751 c 0.184772,-0.201707 0.516031,-0.439175 0.736134,-0.527698 0.220103,-0.08853 1.385079,-0.448992 2.588851,-0.801023 1.203768,-0.352042 2.863373,-0.914308 3.688018,-1.249489 0.824639,-0.33517 2.318964,-1.070165 3.320744,-1.63332 1.001759,-0.563139 2.874213,-1.736382 4.161005,-2.6072 1.286788,-0.870819 3.052822,-2.160953 3.924517,-2.866975 0.871689,-0.706017 2.696941,-2.404262 4.05612,-3.773855 1.359169,-1.369614 3.079387,-3.250021 3.822705,-4.178691 0.743317,-0.928678 1.681913,-2.190711 2.085772,-2.804522 0.403854,-0.61381 1.11452,-1.759146 1.579255,-2.545185 0.464741,-0.786035 1.104471,-1.962215 1.421632,-2.613728 0.317156,-0.651513 0.856614,-1.846373 1.198785,-2.65524 0.342164,-0.808868 0.866574,-2.301704 1.165346,-3.317415 0.298783,-1.015711 0.803014,-2.374143 1.120541,-3.018739 0.317515,-0.644596 0.983457,-1.729298 1.479861,-2.41045 0.496408,-0.681149 1.324929,-1.615116 1.841161,-2.075481 0.516234,-0.460363 1.467455,-1.16301 2.113834,-1.561438 l 1.175232,-0.724415 1.488692,-0.510868 1.488703,-0.510866 1.866515,-0.07788 1.866527,-0.07788 1.068344,0.195811 c 0.587587,0.107698 1.541532,0.360875 2.119881,0.56262 0.578342,0.201744 1.431227,0.586084 1.895307,0.854089 0.464069,0.268003 1.251314,0.800156 1.749415,1.18256 0.498117,0.382402 1.064665,0.877533 1.25901,1.100288 0.19434,0.222755 0.760522,0.958955 1.258175,1.636001 0.497648,0.677046 1.066913,1.559077 1.265046,1.960069 0.198123,0.400991 0.506677,1.24031 0.685679,1.865151 l 0.325447,1.136072 0.118754,4.566812 c 0.06531,2.511744 0.195082,5.124115 0.288363,5.805265 0.09329,0.681151 0.309569,1.969925 0.480636,2.863934 0.171071,0.894004 0.51537,2.287271 0.765106,3.09614 0.249735,0.80887 0.760341,2.236969 1.134666,3.173545 0.374336,0.936594 1.067934,2.538845 1.541353,3.560573 0.473419,1.021723 1.291432,2.589147 1.817818,3.483146 0.526374,0.894021 1.369369,2.182793 1.873321,2.863949 0.503947,0.68114 1.605368,2.039576 2.447593,3.018732 0.842231,0.979149 2.168131,2.407693 2.946463,3.174517 0.778327,0.766823 2.026458,1.951881 2.773623,2.633455 0.747166,0.681584 2.003774,1.734762 2.792449,2.340419 0.788673,0.605635 2.113193,1.551573 2.943383,2.102079 0.83019,0.550499 2.25659,1.415816 3.1698,1.922913 0.9132,0.507124 2.20376,1.197474 2.86792,1.534144 l 1.20753,0.61213 0.27615,0.5796 0.27616,0.57961 -0.17387,0.54031 -0.17387,0.54034 -0.38679,0.31202 -0.38679,0.31204 -0.62115,-0.002 -0.62115,-0.002 z m 4.51211,-7.862549 c -0.87161,-0.456844 -2.36639,-1.310208 -3.32173,-1.896379 -0.95533,-0.586182 -2.73477,-1.818134 -3.95429,-2.737675 -1.21953,-0.919534 -3.093818,-2.469395 -4.165065,-3.444108 l -1.947723,-1.77223 -1.651985,-2.051544 C 93.917004,82.442868 92.9328,81.171358 92.638459,80.745639 92.34413,80.319915 91.659844,79.24013 91.11782,78.346115 c -0.542001,-0.893999 -1.267852,-2.202394 -1.612986,-2.90751 -0.345135,-0.705127 -0.767798,-1.645587 -0.939246,-2.089901 -0.171443,-0.44432 -0.606779,-1.817965 -0.967399,-3.052552 -0.360625,-1.234588 -0.759037,-2.662681 -0.885351,-3.173545 -0.126314,-0.510864 -0.339032,-1.764801 -0.472699,-2.786529 l -0.243037,-1.857683 4.31e-4,-2.786529 c 2.34e-4,-1.532592 -0.06547,-3.413498 -0.14603,-4.179793 l -0.146472,-1.393265 -0.452109,-1.606384 c -0.248677,-0.88351 -0.654806,-2.09486 -0.902523,-2.691886 -0.247716,-0.597027 -0.772054,-1.650056 -1.165194,-2.340064 l -0.714798,-1.254562 -1.50457,-1.597933 c -0.827521,-0.878865 -1.948269,-1.968454 -2.490565,-2.42131 L 77.489288,41.383294 76.130807,40.687456 C 75.383647,40.304745 74.124583,39.77919 73.332889,39.519557 72.541207,39.259923 71.28461,38.929558 70.540457,38.785413 l -1.353017,-0.262084 -1.886782,0.08314 c -1.037733,0.04572 -2.362264,0.189576 -2.943385,0.319662 -0.581137,0.130088 -1.532069,0.386232 -2.1132,0.56921 -0.581132,0.182978 -1.689004,0.654908 -2.461947,1.048736 l -1.405351,0.716048 -1.558219,1.199918 c -0.857017,0.659954 -1.981106,1.672251 -2.497977,2.249548 -0.516872,0.577298 -1.339088,1.670207 -1.82714,2.428689 -0.488053,0.75848 -1.224312,2.051802 -1.636135,2.87405 l -0.74876,1.494994 -0.753414,2.266924 -0.75341,2.266923 -0.915928,1.842513 c -0.50375,1.01338 -1.280679,2.438399 -1.726512,3.166701 -0.445834,0.728307 -1.40665,2.148676 -2.135159,3.156382 -0.728503,1.007706 -1.857575,2.465096 -2.509058,3.238645 -0.651465,0.77355 -1.982513,2.141143 -2.957881,3.039079 -0.975363,0.897957 -2.180936,1.979834 -2.679043,2.404185 -0.498113,0.424345 -1.516977,1.187375 -2.264142,1.695626 -0.747171,0.50825 -1.87235,1.242 -2.500401,1.630548 -0.628039,0.388559 -1.833723,1.062528 -2.679289,1.497718 l -1.537385,0.79125 -2.905586,1.004642 -2.905603,1.004665 -0.498063,1.47e-4 c -0.273926,8e-5 -0.696442,-0.105057 -0.938907,-0.233666 -0.242482,-0.128596 -0.510797,-0.367843 -0.596278,-0.53165 -0.08549,-0.163808 -0.155417,-0.586413 -0.155417,-0.939141 v -0.641318 l 0.416594,-0.42725 0.416581,-0.427267 3.092837,-1.053974 3.09283,-1.053973 1.833248,-0.961597 c 1.008293,-0.528863 2.502629,-1.412308 3.320751,-1.963187 0.818111,-0.550879 2.179042,-1.567704 3.024286,-2.2596 0.845244,-0.691901 2.026704,-1.731506 2.625459,-2.310233 0.598757,-0.578726 1.734362,-1.818529 2.52355,-2.755112 0.789194,-0.936582 1.989833,-2.469175 2.668072,-3.405758 0.67825,-0.936583 1.548635,-2.227171 1.934187,-2.867977 0.385557,-0.640807 1.034721,-1.894743 1.442581,-2.78653 0.40786,-0.891784 1.028394,-2.527047 1.37896,-3.633919 l 0.637395,-2.012494 0.919797,-1.853585 c 0.505891,-1.019471 1.326687,-2.482398 1.82398,-3.250949 l 0.904188,-1.397365 1.896814,-1.953491 1.896808,-1.953492 1.322025,-0.882343 c 0.727108,-0.485289 1.891351,-1.152108 2.587204,-1.481822 0.695842,-0.329714 2.002813,-0.850951 2.904369,-1.158305 l 1.639203,-0.558825 1.509422,-0.237718 1.509434,-0.237718 2.339607,0.07268 2.339623,0.07268 1.433957,0.337181 c 0.788664,0.185449 1.943384,0.511408 2.56602,0.724355 0.622647,0.212946 1.811317,0.729623 2.641507,1.148172 l 1.509422,0.760998 1.584899,1.223784 1.584898,1.223786 1.486777,1.662625 c 0.817724,0.914444 1.777104,2.124266 2.131943,2.688495 0.354845,0.564228 0.917353,1.583176 1.250004,2.264327 0.332663,0.681152 0.77586,1.795764 0.984898,2.476914 0.209029,0.68115 0.560276,2.064269 0.780553,3.073594 l 0.400503,1.835136 0.131233,4.434552 0.13122,4.434551 0.309394,1.706629 c 0.170165,0.938647 0.52066,2.436403 0.778877,3.328348 0.258224,0.891957 0.703326,2.201406 0.989134,2.909894 0.285809,0.708492 0.795673,1.851204 1.133035,2.539371 0.337373,0.688178 0.993396,1.881264 1.457848,2.651326 0.464439,0.770041 1.43329,2.153332 2.153007,3.073959 0.719698,0.920639 1.907315,2.3416 2.639143,3.157711 0.731832,0.816123 2.151305,2.210817 3.154405,3.09932 1.00309,0.888519 2.50304,2.091554 3.33323,2.67342 0.83018,0.581867 2.16859,1.447265 2.97425,1.923095 0.80566,0.475836 2.24493,1.246875 3.19841,1.713432 l 1.73361,0.848286 0.23553,0.467121 c 0.12954,0.256914 0.23553,0.719759 0.23553,1.028548 v 0.56142 l -0.44123,0.452507 -0.44122,0.452517 h -0.65325 -0.65326 z m 2.91325,-8.52088 c -0.75176,-0.37526 -2.00344,-1.07839 -2.78148,-1.562515 -0.77806,-0.484093 -2.05992,-1.374995 -2.8486,-1.979735 -0.78867,-0.604745 -2.13685,-1.799944 -2.99595,-2.655999 -0.85908,-0.856049 -2.19031,-2.32274 -2.95825,-3.259328 -0.76795,-0.936577 -1.680206,-2.132237 -2.027239,-2.657014 -0.347035,-0.524772 -0.960244,-1.674214 -1.362679,-2.554317 -0.40244,-0.880096 -0.982605,-2.247986 -1.289248,-3.039748 -0.306655,-0.791755 -0.715278,-2.080523 -0.908068,-2.863927 -0.192779,-0.783404 -0.465822,-2.086173 -0.606764,-2.895037 L 94.745125,62.01397 94.617496,57.679372 94.489861,53.344773 94.105837,51.46968 C 93.894625,50.43838 93.509761,48.975452 93.250589,48.21873 92.99142,47.462009 92.558633,46.355232 92.288855,45.759223 92.019065,45.163216 91.349418,43.887611 90.800746,42.924545 90.252075,41.96148 89.253532,40.453654 88.581767,39.573824 L 87.360379,37.97413 85.8081,36.497826 C 84.954341,35.685857 83.5824,34.552317 82.759338,33.978846 81.936276,33.405376 80.44777,32.534731 79.451552,32.04408 78.455333,31.553431 77.054781,30.943212 76.339208,30.68804 75.62364,30.432867 74.182871,30.043374 73.137501,29.822497 72.092121,29.601621 70.537973,29.35161 69.683827,29.266918 l -1.552984,-0.153985 -1.811312,0.166605 c -0.996224,0.09163 -2.632468,0.330327 -3.636093,0.53043 -1.003631,0.200103 -2.463999,0.58204 -3.245274,0.848747 -0.781273,0.266708 -2.243225,0.891237 -3.248789,1.387843 -1.005567,0.496606 -2.364048,1.271776 -3.01886,1.722603 -0.654801,0.450823 -1.666025,1.217863 -2.247156,1.704529 -0.581132,0.486667 -1.56895,1.432581 -2.195156,2.102031 -0.62621,0.66945 -1.383282,1.530666 -1.682371,1.913813 -0.299095,0.383149 -1.023133,1.440325 -1.608986,2.349281 -0.585848,0.908956 -1.379053,2.293603 -1.762673,3.076992 -0.383615,0.783391 -1.193582,2.686902 -1.799926,4.230024 -0.606348,1.543123 -1.188085,3.084331 -1.292769,3.424906 -0.104694,0.340576 -0.411658,1.072041 -0.682168,1.625475 -0.270509,0.553436 -0.914099,1.664601 -1.430202,2.469258 -0.516108,0.804656 -1.464288,2.128257 -2.10706,2.941336 -0.642782,0.813078 -1.867247,2.165216 -2.721038,3.004755 -0.853797,0.839534 -2.306984,2.098406 -3.229298,2.797488 -0.922324,0.699082 -2.084489,1.519784 -2.582601,1.823784 -0.498117,0.304001 -1.550938,0.883325 -2.339613,1.287389 -0.78868,0.404059 -2.350943,1.046458 -3.471691,1.427555 l -2.03773,0.692895 -0.793855,0.01626 -0.793859,0.01626 L 17.978684,70.248923 17.565,69.82465 v -0.783933 -0.783915 l 0.405066,-0.357351 0.405081,-0.357352 2.160954,-0.730976 2.160949,-0.730977 2.062809,-1.085917 2.062816,-1.085912 1.635284,-1.237217 1.635288,-1.237218 1.892551,-1.95468 c 1.040895,-1.075077 2.229564,-2.421773 2.641491,-2.992656 0.411927,-0.570886 1.146429,-1.771281 1.632221,-2.66755 l 0.883283,-1.629577 1.35269,-3.447333 c 0.743977,-1.896033 1.832734,-4.387786 2.419449,-5.537229 0.586716,-1.149443 1.362302,-2.560338 1.723544,-3.135323 0.36123,-0.574984 1.076208,-1.619931 1.588833,-2.322106 0.512642,-0.702175 1.806399,-2.162946 2.875048,-3.24616 l 1.942975,-1.969477 1.695602,-1.158098 1.695608,-1.158098 2.035846,-0.997952 c 1.119721,-0.548873 2.528762,-1.177783 3.131196,-1.397575 0.602441,-0.219793 1.9036,-0.612538 2.891483,-0.872769 0.987885,-0.260232 2.532714,-0.573687 3.432944,-0.696567 l 1.636801,-0.223422 2.137091,-0.003 2.137085,-0.003 1.862891,0.240338 c 1.024596,0.132187 2.711962,0.448596 3.749691,0.703133 l 1.886787,0.462796 1.956713,0.801418 1.956734,0.801417 1.860288,1.195045 c 1.02316,0.657274 2.316208,1.560775 2.873449,2.00778 0.557236,0.447003 1.410405,1.165339 1.895946,1.596301 0.485531,0.430963 1.528641,1.549862 2.31802,2.486446 0.78938,0.936583 1.908031,2.427687 2.485887,3.313566 0.577851,0.885876 1.351729,2.225532 1.719734,2.977011 0.367988,0.751479 0.932925,2.046904 1.255413,2.878721 0.322494,0.831817 0.764113,2.091138 0.981394,2.798492 0.217275,0.707355 0.529333,2.065787 0.693456,3.018739 0.164134,0.952952 0.367781,2.630964 0.452546,3.728913 0.08477,1.097948 0.154321,2.978856 0.154588,4.179792 l 4.92e-4,2.183518 0.231952,1.393267 c 0.12757,0.766297 0.403614,2.020233 0.613428,2.786529 0.209809,0.766297 0.542755,1.85637 0.739879,2.422396 0.19713,0.566022 0.796634,1.924452 1.332234,3.018742 l 0.97382,1.989607 1.17301,1.625475 1.17298,1.625475 1.59783,1.629867 c 0.87881,0.89642 2.0733,1.992362 2.65443,2.435414 0.58113,0.443063 2.07546,1.430048 3.32074,2.193303 1.24528,0.763265 2.64044,1.558293 3.10037,1.766749 0.45991,0.20845 0.92127,0.484088 1.0252,0.612537 0.10394,0.128438 0.24894,0.447933 0.32222,0.709991 l 0.13323,0.476451 -0.14238,0.528873 -0.14239,0.528883 -0.36923,0.24813 -0.36924,0.248125 h -0.58231 -0.5823 z m 2.01624,-8.759158 c -0.48508,-0.252293 -1.61612,-0.987413 -2.51343,-1.633601 -0.89732,-0.646177 -2.0583,-1.570905 -2.57998,-2.054944 -0.52165,-0.484032 -1.34782,-1.395325 -1.8359,-2.025102 l -0.88741,-1.145055 -0.76564,-1.564069 c -0.4211,-0.860244 -0.92118,-1.987494 -1.11127,-2.505001 -0.19011,-0.517508 -0.5152,-1.771443 -0.72246,-2.786529 -0.20725,-1.01508 -0.4462,-2.5074 -0.531,-3.31627 -0.0848,-0.808869 -0.19511,-2.689774 -0.24512,-4.179792 -0.05,-1.490018 -0.11799,-2.987777 -0.15104,-3.328353 -0.033,-0.340575 -0.10136,-1.072039 -0.15181,-1.625474 -0.0505,-0.553437 -0.26443,-1.807375 -0.47551,-2.786529 -0.21107,-0.979155 -0.5883,-2.442083 -0.83828,-3.250949 -0.25,-0.808869 -0.72727,-2.13247 -1.06063,-2.941336 -0.33335,-0.808867 -0.89952,-2.070751 -1.258138,-2.804184 -0.358616,-0.733432 -1.025124,-1.971259 -1.481138,-2.750725 -0.456006,-0.779465 -1.405082,-2.203701 -2.109068,-3.164968 -0.703985,-0.961266 -1.853284,-2.405474 -2.554,-3.209349 C 92.823335,30.316998 91.690371,29.17164 91.00638,28.575632 90.322377,27.979625 89.072897,27.015035 88.229766,26.432097 L 86.696808,25.372211 84.281719,24.152263 81.86663,22.93231 79.602498,22.168859 c -1.245277,-0.419898 -3.181122,-0.975207 -4.30187,-1.234018 -1.120754,-0.258813 -2.818862,-0.587542 -3.773575,-0.730509 l -1.735841,-0.259945 -2.867914,0.0903 -2.867914,0.0903 -1.571095,0.238682 c -0.864091,0.131277 -2.358427,0.454024 -3.320733,0.717218 -0.962312,0.263194 -2.666637,0.826764 -3.787379,1.252375 -1.120754,0.425612 -2.796439,1.179758 -3.723741,1.67588 -0.927298,0.496122 -2.312125,1.330871 -3.077379,1.854999 -0.765271,0.524125 -1.772591,1.237867 -2.238505,1.586091 -0.46593,0.348225 -1.686345,1.475359 -2.712054,2.504746 -1.025699,1.029387 -2.433041,2.576303 -3.127415,3.43759 -0.694378,0.861289 -1.711851,2.254552 -2.261063,3.096143 l -0.998565,1.530164 -1.535453,3.173546 c -0.844496,1.745451 -1.731899,3.765683 -1.972018,4.489408 -0.240112,0.723722 -0.765057,2.038049 -1.166553,2.920724 -0.401485,0.882676 -1.098145,2.171447 -1.548115,2.863933 -0.449982,0.692487 -1.264654,1.778593 -1.810372,2.41357 -0.545714,0.634977 -1.452112,1.565239 -2.014216,2.067249 -0.562088,0.502009 -1.527734,1.265161 -2.145873,1.695892 -0.618128,0.43073 -1.874736,1.14884 -2.792443,1.595799 -0.917708,0.446961 -1.915023,0.859781 -2.216256,0.917382 l -0.547701,0.104714 -0.433786,-0.23006 c -0.238579,-0.126534 -0.547406,-0.359105 -0.686263,-0.516824 -0.138862,-0.157718 -0.268141,-0.460919 -0.287271,-0.673779 -0.01916,-0.212859 -0.02424,-0.53426 -0.01135,-0.714224 0.01294,-0.179964 0.187517,-0.495445 0.388008,-0.701071 l 0.364533,-0.373868 1.659104,-0.739281 1.659102,-0.739282 1.334841,-0.906328 1.334842,-0.906327 1.317641,-1.368689 c 0.7247,-0.75278 1.493916,-1.612512 1.709363,-1.910516 0.215447,-0.298002 0.654966,-0.994635 0.976706,-1.548071 0.321734,-0.553435 1.089101,-2.295014 1.705241,-3.870177 0.616152,-1.575163 1.732364,-4.152702 2.480484,-5.727865 l 1.360222,-2.863931 1.156635,-1.769709 c 0.636151,-0.973339 1.623194,-2.333337 2.193442,-3.022216 0.570253,-0.688879 2.044475,-2.300856 3.276058,-3.58217 l 2.239236,-2.329663 1.515442,-1.159225 c 0.833493,-0.637574 2.155878,-1.565522 2.938631,-2.062109 0.782759,-0.496586 2.138537,-1.27078 3.012841,-1.72043 0.874303,-0.44965 2.681002,-1.234024 4.014884,-1.743051 1.333885,-0.509028 3.133871,-1.106437 3.999986,-1.327575 0.866112,-0.221137 2.491734,-0.555288 3.612476,-0.742557 l 2.037735,-0.340487 3.698104,-0.0063 3.698094,-0.0063 1.760434,0.345446 c 0.968235,0.189996 2.836154,0.629807 4.15093,0.977357 1.314771,0.34755 3.103698,0.917127 3.975392,1.265726 0.871684,0.3486 2.705642,1.221346 4.075459,1.939435 1.369801,0.718088 3.135825,1.74391 3.924506,2.279605 0.78868,0.535693 1.86615,1.328839 2.394369,1.762547 0.528226,0.433706 1.539443,1.329266 2.247151,1.990135 0.707713,0.660866 1.979391,2.054514 2.825962,3.096993 0.846553,1.042476 1.927642,2.448726 2.402404,3.124995 0.474765,0.67627 1.200837,1.808734 1.613497,2.516588 0.41265,0.707854 1.15334,2.094594 1.64601,3.081643 l 0.89574,1.794635 0.76958,2.307754 c 0.42328,1.269264 0.93302,2.969554 1.13276,3.778421 0.19974,0.808867 0.46523,2.075538 0.58995,2.814821 0.12475,0.739286 0.29601,2.097719 0.38061,3.01874 0.0846,0.921022 0.22762,3.207176 0.31784,5.080342 l 0.16407,3.405756 0.27978,1.625475 c 0.15388,0.89401 0.45455,2.167047 0.66816,2.82897 0.2136,0.661923 0.60146,1.637207 0.86189,2.1673 0.26042,0.530091 0.77122,1.392371 1.1351,1.916194 0.36389,0.523821 1.10282,1.375692 1.64208,1.893062 0.53926,0.517365 1.33615,1.20925 1.77086,1.537506 0.43473,0.328264 1.50167,1.034192 2.37102,1.568732 0.86933,0.534544 1.66531,1.086004 1.76881,1.225479 0.10353,0.139463 0.23209,0.481139 0.28572,0.75928 l 0.0975,0.505702 -0.17461,0.43234 c -0.096,0.237781 -0.369,0.550105 -0.6066,0.694048 l -0.43198,0.261708 -0.505,-0.0017 -0.50502,-0.0017 z m 0.56324,-10.823547 c -0.25831,-0.16154 -0.61719,-0.50622 -0.79752,-0.765956 -0.18034,-0.259736 -0.48422,-0.841351 -0.67531,-1.292479 -0.19109,-0.451128 -0.45783,-1.238211 -0.59275,-1.749076 -0.13492,-0.510864 -0.31167,-1.52098 -0.39274,-2.244704 -0.0811,-0.723723 -0.18999,-2.325978 -0.242,-3.560564 -0.052,-1.234588 -0.15646,-3.13207 -0.23212,-4.216628 -0.0757,-1.084559 -0.28141,-2.860971 -0.45721,-3.947583 -0.17581,-1.086611 -0.51991,-2.776784 -0.76468,-3.755939 -0.24479,-0.979155 -0.68913,-2.511745 -0.98744,-3.405757 -0.29831,-0.894011 -0.80985,-2.322106 -1.13674,-3.173546 -0.32691,-0.851439 -1.05747,-2.534417 -1.6235,-3.739949 l -1.02913,-2.191878 -1.38749,-2.21421 c -0.76311,-1.217815 -1.83555,-2.809009 -2.3832,-3.535987 -0.54764,-0.726975 -1.30103,-1.67009 -1.67417,-2.09581 -0.37315,-0.425721 -1.39684,-1.461136 -2.27486,-2.300923 -0.878022,-0.839789 -2.105826,-1.94724 -2.728467,-2.461002 -0.622636,-0.513763 -1.914287,-1.471614 -2.870316,-2.12856 -0.95603,-0.656944 -2.627954,-1.69496 -3.715386,-2.3067 -1.087436,-0.61174 -2.750496,-1.4476 -3.695702,-1.857466 -0.9452,-0.409866 -2.516623,-1.031891 -3.492029,-1.382278 -0.975412,-0.350386 -2.877291,-0.914262 -4.2264,-1.253056 -1.349103,-0.338795 -3.172275,-0.723174 -4.051486,-0.854174 -0.879211,-0.131002 -2.645241,-0.315295 -3.924506,-0.409541 l -2.32595,-0.171356 -1.474119,0.100342 c -0.810754,0.05519 -2.539482,0.271421 -3.841617,0.480518 -1.302131,0.209096 -3.416902,0.660433 -4.699497,1.002969 -1.282589,0.342536 -2.821678,0.791388 -3.420194,0.997446 -0.598526,0.20606 -2.051003,0.797013 -3.227731,1.313229 -1.176727,0.516217 -2.901165,1.330347 -3.832109,1.809179 -0.930927,0.478833 -2.30409,1.251046 -3.051458,1.716028 -0.747366,0.464982 -1.857225,1.228285 -2.466369,1.696228 -0.609143,0.467943 -1.819755,1.48143 -2.690248,2.252195 -0.870504,0.770762 -2.349776,2.26111 -3.287286,3.31188 -0.93751,1.050771 -2.469785,2.928871 -3.405074,4.17356 -0.935271,1.244686 -2.070735,2.86553 -2.523238,3.601874 -0.452519,0.736344 -1.457776,2.662408 -2.233914,4.280143 -0.776148,1.617733 -2.031168,4.543589 -2.788939,6.501898 -0.757765,1.958311 -1.503931,3.692142 -1.658136,3.85296 l -0.280373,0.292395 -0.736435,0.07258 -0.736429,0.07257 -0.483708,-0.417431 -0.483707,-0.417432 v -0.611317 -0.611319 l 1.214166,-3.05159 c 0.667785,-1.678374 1.586852,-3.961802 2.042362,-5.074281 0.455506,-1.112482 1.388637,-3.02822 2.073629,-4.257197 0.685001,-1.228977 1.544256,-2.687314 1.909466,-3.24075 0.36521,-0.553435 1.167038,-1.690059 1.781842,-2.525829 0.614804,-0.835772 1.635507,-2.159373 2.268236,-2.941335 0.632728,-0.781964 1.83251,-2.146362 2.666173,-3.031995 0.833677,-0.885631 2.256936,-2.263048 3.162799,-3.060925 0.905874,-0.797876 2.434165,-1.997036 3.396221,-2.664803 0.962039,-0.667767 2.494097,-1.653494 3.40455,-2.190507 0.910458,-0.537013 2.472717,-1.375144 3.471687,-1.862513 0.998968,-0.487369 2.604096,-1.203586 3.566959,-1.591592 0.962857,-0.388006 2.797748,-1.0164969 4.077537,-1.3966458 1.279785,-0.3801504 3.051267,-0.8345509 3.936624,-1.0097807 0.88535,-0.1752304 2.378743,-0.4200869 3.318654,-0.5441277 0.939916,-0.1240396 2.625907,-0.2724464 3.746655,-0.329792 L 68.432726,6.947 70.47045,7.1247495 c 1.120758,0.097762 2.92075,0.3175802 3.999993,0.4884857 1.079238,0.170905 2.913195,0.5527844 4.075458,0.8486213 1.162252,0.2958363 3.233943,0.9254937 4.603749,1.3992385 l 2.490549,0.861355 2.844563,1.389642 c 1.564513,0.764305 3.602237,1.84833 4.528284,2.408944 0.926053,0.560616 2.218905,1.40325 2.873007,1.872521 0.654097,0.469271 1.774844,1.34238 2.490549,1.940243 0.715715,0.597862 1.800918,1.544601 2.411588,2.103865 0.61066,0.559264 1.58485,1.574148 2.16489,2.255301 0.58002,0.68115 1.77185,2.205923 2.64848,3.388384 0.87666,1.18246 1.98181,2.784714 2.45591,3.560564 0.4741,0.77585 1.24155,2.1421 1.70542,3.036111 0.46389,0.894011 1.19339,2.461434 1.62113,3.48316 0.42771,1.021728 1.21522,3.205646 1.75,4.853151 0.53479,1.647507 1.13277,3.702571 1.32885,4.56681 0.19609,0.864239 0.49589,2.407305 0.66622,3.429031 0.17033,1.021727 0.37788,2.519486 0.46123,3.328353 0.0833,0.808867 0.22453,2.863932 0.31373,4.566811 0.0892,1.702878 0.23306,3.606479 0.31968,4.230216 0.0866,0.623742 0.28623,1.517911 0.4436,1.987048 0.15737,0.469132 0.49158,1.221219 0.74266,1.671298 0.25108,0.450079 0.4565,0.938647 0.4565,1.085697 0,0.147057 -0.10712,0.498929 -0.23807,0.781934 l -0.23808,0.514554 -0.50171,0.244176 c -0.27594,0.134297 -0.6273,0.243914 -0.78078,0.243595 -0.15349,-3.18e-4 -0.49042,-0.132754 -0.74873,-0.294299 z"
       id="path1" /></g></svg>
